<?xml version="1.0" encoding="UTF-8" standalone="no"?>
<!-- Created with Inkscape (http://www.inkscape.org/) -->

<svg
   xmlns:dc="http://purl.org/dc/elements/1.1/"
   xmlns:cc="http://creativecommons.org/ns#"
   xmlns:rdf="http://www.w3.org/1999/02/22-rdf-syntax-ns#"
   xmlns:svg="http://www.w3.org/2000/svg"
   xmlns="http://www.w3.org/2000/svg"
   xmlns:sodipodi="http://sodipodi.sourceforge.net/DTD/sodipodi-0.dtd"
   xmlns:inkscape="http://www.inkscape.org/namespaces/inkscape"
   width="965.93933mm"
   height="564.44446mm"
   viewBox="0 0 3422.6197 2000"
   id="svg2"
   version="1.1"
   inkscape:version="0.91 r13725"
   sodipodi:docname="bg.svg">
  <defs
     id="defs4" />
  <sodipodi:namedview
     id="base"
     pagecolor="#ffffff"
     bordercolor="#666666"
     borderopacity="1.0"
     inkscape:pageopacity="0.0"
     inkscape:pageshadow="2"
     inkscape:zoom="0.24748737"
     inkscape:cx="2570.5264"
     inkscape:cy="384.13833"
     inkscape:document-units="px"
     inkscape:current-layer="layer1"
     showgrid="false"
     fit-margin-top="0"
     fit-margin-left="0"
     fit-margin-right="0"
     fit-margin-bottom="0"
     inkscape:window-width="1920"
     inkscape:window-height="1017"
     inkscape:window-x="1272"
     inkscape:window-y="-8"
     inkscape:window-maximized="1" />
  <metadata
     id="metadata7">
    <rdf:RDF>
      <cc:Work
         rdf:about="">
        <dc:format>image/svg+xml</dc:format>
        <dc:type
           rdf:resource="http://purl.org/dc/dcmitype/StillImage" />
        <dc:title></dc:title>
      </cc:Work>
    </rdf:RDF>
  </metadata>
  <g
     inkscape:label="Layer 1"
     inkscape:groupmode="layer"
     id="layer1"
     transform="translate(2753.7144,616.20925)">
    <path
       style="fill:#c9d9f8"
       d="m 0,0 0,1000 0,1000 1600,0 550,0 L 2150,0 1600,0 0,0 Z"
       transform="translate(-1705.7143,-616.20925)"
       id="path4155"
       inkscape:connector-curvature="0" />
    <path
       style="fill:#6a89af"
       d="m 0,0 0,1000 0,1000 1600,0 550,0 L 2150,0 1600,0 0,0 Z m 1604.0625,746.88672 c 18.8118,0.0488 37.4663,4.43153 54.6934,13.10742 10.5518,5.31416 16.9681,9.77119 28.9785,20.13281 5.4009,4.65942 10.7922,8.79696 11.9804,9.19532 3.9939,1.33887 15.261,20.16458 20.668,34.53125 4.8101,12.78049 7.1172,26.25854 7.1172,41.59179 l 0,13.92969 15.9375,0 c 15.161,0 16.3839,0.19451 25.0879,3.97852 12.3375,5.36365 21.454,12.67455 28.293,22.68945 8.4076,12.31204 10.9123,19.82129 11.6406,34.89453 l 0.6191,12.8125 20.7735,0.0527 c 24.0425,0.0602 28.6486,1.1889 39.4843,9.67774 7.2664,5.69263 12.0486,13.91533 12.1524,20.89453 0.092,6.19113 -3.8539,20.80113 -7.125,26.38283 -3.7114,6.333 -9.3356,11.2527 -16.8633,14.752 l -5.625,2.6152 -264.375,0.1836 c -148.0689,0.1031 -266.8244,-0.2998 -269.9434,-0.916 -16.8913,-3.3373 -30.5678,-21.9435 -28.3125,-38.51958 1.1503,-8.45277 6.4139,-18.22001 12.5118,-23.2168 9.0838,-7.4436 12.8233,-8.15438 43.0879,-8.17578 14.8667,-0.0105 27.8015,-0.50568 28.7421,-1.10156 1.3957,-0.88412 1.0171,-2.89417 -2.0547,-10.91993 -5.8805,-15.36416 -6.9532,-22.14727 -6.2343,-39.40625 0.546,-13.10737 1.2111,-16.96351 4.4258,-25.64453 6.2608,-16.90758 17.9074,-32.41862 32.7773,-43.65234 6.7046,-5.06508 23.6631,-12.72433 33.2598,-15.02148 11.4255,-2.73497 32.3933,-2.75876 42.7793,-0.0488 4.3523,1.13565 8.7187,2.06445 9.7031,2.06445 0.9844,0 3.15,-3.07483 4.8125,-6.83398 11.139,-25.18728 35.6688,-49.04193 61.7148,-60.01368 15.9737,-6.72883 32.6943,-10.05864 49.293,-10.01562 z"
       transform="translate(-1705.7143,-616.20925)"
       id="path4153"
       inkscape:connector-curvature="0" />
    <path
       style="fill:#4e6b91"
       d="m 0,0 0,1000 0,1000 1600,0 550,0 L 2150,0 1600,0 0,0 Z m 1602.6387,745.33984 c 31.1747,-0.31615 61.8674,11.07394 85.1523,33.19336 l 7.166,6.80664 20.959,0.21289 c 19.046,0.19398 21.78,0.50819 29.9473,3.43165 38.232,13.68501 61.6367,46.03247 61.6367,85.1875 l 0,8.95312 12.1875,0 c 10.666,0 13.0982,0.42711 19.4824,3.41797 4.0121,1.87962 9.4399,5.11585 12.0606,7.19141 9.6655,7.65522 16.2695,22.46866 16.2695,36.49218 l 0,7.27344 16.6289,0 c 15.3423,0 17.1282,0.24885 23.0606,3.20508 18.1021,9.02064 19.5003,34.0223 2.5312,45.25195 -4.3555,2.88237 -6.8588,3.49926 -16.3887,4.03516 l -11.248,0.63281 -1.5586,7.66406 c -0.8571,4.21534 -2.4798,9.44834 -3.6074,11.62894 -3.0439,5.8862 -10.5875,12.9104 -17.5957,16.3847 l -6.1973,3.0723 -266.25,0.1914 c -146.4375,0.1055 -267.9375,-0.2198 -270,-0.7226 -21.1931,-5.1672 -33.5791,-26.2427 -27.5703,-46.91216 2.6591,-9.14704 11.656,-19.11798 21.0683,-23.34961 6.0885,-2.73727 8.3172,-2.94994 35.0332,-3.35547 21.1507,-0.32106 28.3635,-0.81093 27.8829,-1.89258 -14.0369,-31.58687 -14.1042,-55.72432 -0.2344,-84.00586 17.9694,-36.64095 60.4878,-57.71384 101.0137,-50.0625 6.0186,1.13635 11.739,2.3724 12.7128,2.7461 1.2283,0.47134 3.1777,-2.12539 6.3633,-8.47852 12.0647,-24.06129 30.7705,-42.91033 54.3555,-54.77148 17.5553,-8.82877 36.4338,-13.23219 55.1387,-13.42188 z m -5.5528,322.03516 c 3.7075,-0.055 7.1773,1.5952 10.5606,4.9785 l 4.8535,4.8516 -0.045,14.2109 c -0.048,15.5224 -0.9593,18.475 -6.9141,22.4004 -6.6932,4.4122 -18.1004,1.8283 -21.7109,-4.918 -0.7314,-1.3665 -1.3301,-9.0087 -1.3301,-16.9843 0,-15.9424 1.1098,-19.2354 7.623,-22.6036 2.4289,-1.256 4.7385,-1.9022 6.9629,-1.9355 z m -170.0332,0.01 c 3.7288,-0.075 7.1934,1.5722 10.5938,4.9726 l 4.8535,4.8516 0,13.959 c 0,16.0318 -1.3364,19.9059 -7.9473,23.0429 -2.3685,1.124 -5.9087,2.0411 -7.8672,2.0391 -4.2369,-0.01 -10.9932,-3.8681 -12.8554,-7.3477 -0.7314,-1.3665 -1.3301,-9.1468 -1.3301,-17.289 0,-16.2238 0.8731,-18.8082 7.5137,-22.2422 2.4692,-1.2769 4.8018,-1.9414 7.039,-1.9863 z m 339.3477,0.2617 c 2.4773,-0.03 4.9704,0.5012 7.2266,1.6679 6.5376,3.3808 7.623,6.6383 7.623,22.8672 0,16.1824 -0.8762,18.7727 -7.5137,22.2051 -7.134,3.6891 -17.247,0.8726 -20.6758,-5.7578 -2.3586,-4.5614 -2.4467,-29.1942 -0.1191,-33.3887 2.6318,-4.7427 8.0089,-7.5281 13.459,-7.5937 z m -259.4942,1.289 c 0.6454,-0.016 1.3705,0 2.1563,0.059 l 5.3125,0.3848 0.3418,22.1875 c 0.2232,14.5144 -0.101,22.1875 -0.9375,22.1875 -0.8179,0 -1.2793,-7.1197 -1.2793,-19.75 0,-20.9122 -0.4746,-22.75 -5.875,-22.75 -1.5813,0 -2.875,-0.5952 -2.875,-1.3223 0,-0.5865 1.2201,-0.9477 3.1562,-0.9961 z m 168.75,0 c 0.6454,-0.016 1.3705,0 2.1563,0.059 l 5.3125,0.3848 0.3418,22.1875 c 0.2232,14.5144 -0.101,22.1875 -0.9375,22.1875 -0.8165,0 -1.2793,-6.9685 -1.2793,-19.2734 0,-10.6001 -0.3404,-20.1626 -0.7578,-21.25 -0.4499,-1.1725 -2.2305,-1.9766 -4.375,-1.9766 -1.9889,0 -3.6172,-0.5952 -3.6172,-1.3223 0,-0.5865 1.2201,-0.9477 3.1562,-0.9961 z m -78.1562,2.0918 c -3.3409,3e-4 -6.6813,1.1514 -8.8438,3.4532 -2.8444,3.0279 -3.0312,4.1063 -3.0312,17.6015 l 0,14.377 4.2344,3.7832 c 3.5617,3.1825 4.9394,3.6698 8.6816,3.0625 2.4469,-0.3971 5.887,-2.1609 7.6426,-3.918 3.0494,-3.0517 3.1914,-3.8325 3.1914,-17.4394 0,-13.3558 -0.19,-14.4457 -3.0312,-17.4688 -2.1631,-2.3016 -5.5029,-3.4514 -8.8438,-3.4512 z m 170.3281,0.3887 c -0.5755,0.017 -1.2126,0.047 -1.9258,0.09 -5.2033,0.3086 -6.7221,0.9756 -8.9003,3.9023 -2.2895,3.0763 -2.627,5.2653 -2.627,17.0566 0,11.7676 0.3252,13.8874 2.5,16.3047 1.375,1.5283 3.625,3.24 5,3.8028 3.758,1.5381 6.6282,1.3732 10.4434,-0.5996 5.0992,-2.637 6.4316,-6.9205 6.4316,-20.6817 0,-11.5062 -0.2241,-12.6098 -3.2871,-16.25 -2.6146,-3.1073 -3.6058,-3.7418 -7.6348,-3.625 z m -341.6816,0.014 c -3.8333,-0.095 -5.121,0.5264 -7.4375,2.9902 -2.7745,2.9507 -3.1269,4.5292 -3.5156,15.7598 -0.4857,14.0262 0.8403,18.9072 5.916,21.7617 4.4446,2.4997 11.1582,1.3637 15.0742,-2.5508 3.0326,-3.0314 3.1914,-3.8722 3.1914,-16.8183 0,-11.8922 -0.335,-14.0772 -2.627,-17.1602 -2.1673,-2.9151 -3.7036,-3.5983 -8.791,-3.9023 -0.6618,-0.04 -1.2629,-0.067 -1.8105,-0.08 z m 254.6035,68.7031 c 5.1486,-0.1368 10.436,2.0548 13.4395,6.6387 1.6203,2.473 2.0605,6.2989 2.0605,17.9101 0,16.5672 -1.0113,19.3064 -8.248,22.3301 -2.2943,0.9587 -5.4564,1.7285 -7.0254,1.7129 -4.5659,-0.046 -10.9544,-3.8024 -12.9161,-7.5957 -2.5632,-4.9573 -2.503,-28.6595 0.086,-33.666 2.4453,-4.7287 7.4549,-7.1933 12.6035,-7.3301 z m -168.4375,0.088 c 2.3096,0.06 4.6697,0.6062 6.9277,1.6777 6.7813,3.2179 8.2598,7.3003 8.2598,22.8164 0,15.0808 -1.2772,18.2996 -8.7988,22.1895 -6.3268,3.2706 -15.1558,1.1748 -19.166,-4.5508 -2.8899,-4.1252 -2.954,-31.7306 -0.084,-35.8281 2.9469,-4.2072 7.7801,-6.4364 12.8613,-6.3047 z m -90.4063,1.2148 c 0.6454,-0.016 1.3705,0 2.1563,0.059 l 5.3125,0.3848 0.3438,21.1562 c 0.2152,13.2478 -0.1353,21.6353 -0.9376,22.4376 -0.875,0.8749 -1.2812,-4.91 -1.2812,-18.2422 0,-10.7376 -0.3404,-20.4126 -0.7578,-21.5 -0.4499,-1.1725 -2.2305,-1.9766 -4.375,-1.9766 -1.9889,0 -3.6172,-0.5952 -3.6172,-1.3223 0,-0.5865 1.2201,-0.9477 3.1562,-0.9961 z m 170,0 c 0.6454,-0.016 1.3705,0 2.1563,0.059 l 5.3125,0.3848 0.3418,22.1875 c 0.2232,14.5144 -0.101,22.1875 -0.9375,22.1875 -0.8165,0 -1.2793,-6.9685 -1.2793,-19.2734 0,-10.6001 -0.3404,-20.1626 -0.7578,-21.25 -0.4499,-1.1725 -2.2305,-1.9766 -4.375,-1.9766 -1.9889,0 -3.6172,-0.5952 -3.6172,-1.3223 0,-0.5865 1.2201,-0.9477 3.1562,-0.9961 z m 169.8106,0.01 c 0.3456,0.01 0.7106,0.023 1.0957,0.051 l 5.3125,0.3848 0.3418,22.1875 c 0.218,14.1698 -0.1108,22.1875 -0.9082,22.1875 -0.7683,0 -1.3809,-8.0567 -1.5918,-20.9375 l -0.3418,-20.9375 -4.0625,-0.3926 c -5.7094,-0.5505 -5.0294,-2.6498 0.1543,-2.5429 z m -248.957,1.1777 c -1.9926,-0.068 -4.0835,0.5031 -6.3965,1.6992 -5.3056,2.7436 -6.6628,7.5266 -6.1699,21.7285 0.4555,13.1252 1.8822,16.5475 7.9316,19.0235 3.5061,1.435 3.9228,1.4043 8.8359,-0.6485 6.5274,-2.7273 8.4387,-8.3628 7.7989,-22.9922 -0.4975,-11.3758 -0.6414,-11.8622 -4.5313,-15.3379 -2.5056,-2.2388 -4.9068,-3.3847 -7.4687,-3.4726 z m 168.2168,0 c -2.5677,0.096 -4.9794,1.2577 -7.5196,3.5274 l -4.082,3.6484 0,14.377 c 0,13.4119 0.2001,14.5881 2.9688,17.5351 1.6322,1.7375 4.1635,3.3793 5.625,3.6485 4.4284,0.8156 8.7388,-0.4942 12.0312,-3.6563 2.8545,-2.7416 3.162,-4.0875 3.5566,-15.5527 0.4927,-14.3095 -0.8555,-19.0819 -6.1699,-21.8301 -2.3211,-1.2003 -4.4131,-1.7716 -6.4101,-1.6973 z m 85.4004,68.7168 c 2.4985,0.01 5.0353,0.5795 7.3593,1.7813 6.662,3.4451 7.5137,5.9971 7.5137,22.5078 0,16.8974 -0.9835,19.5976 -8.248,22.6328 -5.3092,2.2184 -8.9033,2.1659 -13.6915,-0.1973 -6.5603,-3.2376 -8.0605,-7.4042 -8.0605,-22.3789 0,-9.4493 0.55,-14.3688 1.8965,-16.9726 2.4259,-4.6912 7.7337,-7.3926 13.2305,-7.3731 z m -169.0704,0.066 c 5.4799,0.037 10.8526,2.8096 13.502,7.584 1.0169,1.8323 1.6178,7.8233 1.6465,16.3887 0.051,15.5439 -1.3189,19.4579 -7.9024,22.582 l 0,0 c -5.3695,2.5483 -9.1161,2.5757 -13.9277,0.1 -7.2739,-3.7433 -8.0677,-5.9435 -8.0977,-22.4649 -0.03,-16.4795 0.8176,-19.024 7.4864,-22.4726 2.2897,-1.184 4.8021,-1.7315 7.2929,-1.7149 z m -169.9941,0.064 c 2.3096,0.06 4.6697,0.6062 6.9277,1.6777 6.8023,3.2279 8.2598,7.2856 8.2598,23.0039 l 0,13.8887 -4.0625,4.4336 c -6.6134,7.2164 -18.5422,6.7815 -23.9023,-0.8711 -2.8899,-4.1252 -2.954,-31.7306 -0.084,-35.8281 2.9469,-4.2072 7.7801,-6.4364 12.8613,-6.3047 z m 250.8125,1.0332 5.625,0 0,22.5 c 0,13.795 -0.4728,22.5 -1.2207,22.5 -0.7309,0 -1.3571,-8.3925 -1.5625,-20.9375 l -0.3418,-20.9375 -4.0625,-0.3926 c -6.1087,-0.589 -4.883,-2.7324 1.5625,-2.7324 z m -171.2188,0.1816 c 0.6454,-0.016 1.3705,0 2.1563,0.059 l 5.3125,0.3848 0.3418,22.1875 c 0.2232,14.5144 -0.101,22.1875 -0.9375,22.1875 -0.8165,0 -1.2793,-6.9684 -1.2793,-19.2734 0,-10.6001 -0.3404,-20.1626 -0.7578,-21.25 -0.4499,-1.1725 -2.2305,-1.9766 -4.375,-1.9766 -1.9889,0 -3.6172,-0.5952 -3.6172,-1.3223 0,-0.5865 1.2201,-0.9477 3.1562,-0.9961 z m 259.4766,1.168 c -2.4061,-0.048 -4.6513,0.7694 -6.7969,2.457 -4.0406,3.1784 -5.8403,9.4148 -5.7578,19.9434 0.089,11.2998 2.0613,16.3763 7.4219,19.0918 5.4849,2.7785 9.6024,1.9271 14.0625,-2.9063 3.2695,-3.5429 3.4375,-4.3321 3.4375,-16.1464 0,-13.8409 -1.3253,-18.1173 -6.4316,-20.7579 -2.095,-1.0833 -4.0641,-1.6442 -5.9356,-1.6816 z m -168.6426,0.022 c -2.0107,-0.062 -4.1269,0.5326 -6.5039,1.7617 -4.9524,2.561 -6.6059,8.7749 -6.0566,22.7695 0.4677,11.9173 2.0482,15.4831 7.9453,17.9297 3.7487,1.5553 9.6095,0.057 13.125,-3.3554 2.9781,-2.8909 3.125,-3.7123 3.125,-17.4825 l 0,-14.4492 -4.082,-3.6484 c -2.5577,-2.2853 -4.9675,-3.4463 -7.5528,-3.5254 z m -169.9414,0.021 c -2.0342,-0.025 -4.2092,0.5225 -6.4355,1.6738 -5.3056,2.7436 -6.6628,7.5266 -6.1699,21.7285 0.4555,13.1253 1.8822,16.5476 7.9316,19.0235 3.5061,1.4351 3.9209,1.4043 8.834,-0.6485 2.977,-1.2438 4.967,-3.232 6.2109,-6.209 2.3411,-5.602 2.3934,-21.9452 0.088,-27.4629 -2.185,-5.2296 -5.9837,-8.0505 -10.459,-8.1054 z m 84.5137,69.9629 c 5.4164,-0.01 10.805,2.546 13.291,7.3535 1.3551,2.6204 1.8965,7.5602 1.8965,17.3105 0,15.3452 -1.5278,18.9081 -9.5449,22.2578 -5.4275,2.2678 -7.3564,2.1108 -14,-1.1367 -5.1636,-2.524 -6.4551,-7.0646 -6.4551,-22.6836 0,-14.0027 0.1005,-14.5299 3.4785,-18.3105 2.8923,-3.2371 7.1213,-4.7871 11.334,-4.791 z m 168.6777,0.1054 c 2.6834,-0.079 5.3874,0.4366 7.7461,1.6563 6.586,3.4057 7.5137,6.0726 7.5137,21.5976 0,16.8192 -1.2992,20.2842 -8.7266,23.2559 -6.0403,2.417 -6.9885,2.4357 -12.0039,0.252 -7.7433,-3.3715 -9.2695,-7.0025 -9.2695,-22.0606 0,-7.425 0.5484,-14.9419 1.2188,-16.7051 1.8137,-4.7708 7.6181,-7.8228 13.5214,-7.9961 z m 81.8848,1.0391 5.875,0 0,22.5 c 0,13.795 -0.4728,22.5 -1.2207,22.5 -0.7309,0 -1.3571,-8.3925 -1.5625,-20.9375 l -0.3418,-20.9375 -3.125,-0.418 c -5.9314,-0.794 -5.6664,-2.707 0.375,-2.707 z m -340.9688,0.1816 c 0.6454,-0.016 1.3705,0 2.1563,0.059 l 5.3125,0.3848 0.3438,21.1562 c 0.2152,13.2478 -0.1353,21.6353 -0.9376,22.4376 -0.875,0.875 -1.2812,-4.91 -1.2812,-18.2422 0,-10.7375 -0.3404,-20.4125 -0.7578,-21.5 -0.4499,-1.1725 -2.2305,-1.9766 -4.375,-1.9766 -1.9889,0 -3.6172,-0.5953 -3.6172,-1.3223 0,-0.5866 1.2201,-0.9477 3.1562,-0.9961 z m 171.0606,0.01 c 0.3456,0.01 0.7106,0.023 1.0957,0.051 l 5.3125,0.3848 0.3438,21.1562 c 0.2097,12.9152 -0.1432,21.6432 -0.9063,22.4063 -0.8332,0.8332 -1.3646,-5.802 -1.5937,-19.9063 l -0.3438,-21.1562 -4.0625,-0.3926 c -5.7094,-0.5504 -5.0294,-2.6498 0.1543,-2.5429 z m -80.5606,1.2851 c -3.9398,0.01 -7.8774,1.7264 -10.0195,5.1563 -2.1668,3.4693 -2.4475,5.776 -2.1289,17.5429 0.3546,13.0928 0.4856,13.6496 3.875,16.5625 7.6076,6.5384 18.425,2.5133 20.3145,-7.5586 1.2657,-6.7475 0.011,-23.3663 -2.0078,-26.5781 -2.1515,-3.4232 -6.0934,-5.1311 -10.0333,-5.125 z m 168.9376,0 c -3.9399,-0.01 -7.8818,1.7019 -10.0333,5.125 -2.0212,3.2118 -3.2735,19.8306 -2.0078,26.5781 0.4748,2.5308 2.2061,5.9437 3.8477,7.586 4.1065,4.1067 11.6705,4.0948 16.4668,-0.027 3.3894,-2.9128 3.5204,-3.4697 3.875,-16.5625 0.3186,-11.7668 0.038,-14.0736 -2.1289,-17.5429 -2.1421,-3.4298 -6.0797,-5.1502 -10.0195,-5.1563 z m 85.0332,68.6113 c 2.4985,0.01 5.0353,0.5814 7.3593,1.7832 6.6375,3.4324 7.5137,6.0208 7.5137,22.2032 0,16.9656 -1.0119,19.5612 -8.8496,22.6972 -5.9114,2.3653 -6.8792,2.3827 -11.8809,0.2051 -7.7626,-3.3799 -9.2695,-6.9894 -9.2695,-22.2051 0,-9.7503 0.5414,-14.6901 1.8965,-17.3105 2.4259,-4.6912 7.7337,-7.3926 13.2305,-7.3731 z m -339.0645,0.02 c 5.4164,-0.01 10.805,2.546 13.291,7.3535 1.3551,2.6204 1.8965,7.5602 1.8965,17.3105 0,15.3452 -1.5278,18.9081 -9.5449,22.2578 -5.0922,2.1277 -6.2173,2.1038 -11.7051,-0.2519 -7.8528,-3.3709 -8.6915,-5.5534 -8.7227,-22.6934 -0.027,-14.978 0.045,-15.3731 3.4512,-19.1855 2.8923,-3.2371 7.1213,-4.7871 11.334,-4.791 z m 170,0 c 5.4164,-0.01 10.805,2.546 13.291,7.3535 1.3551,2.6204 1.8965,7.5602 1.8965,17.3105 0,15.3452 -1.5278,18.9081 -9.5449,22.2578 -5.2648,2.1998 -6.2709,2.1489 -12.3555,-0.6152 -6.9539,-3.1589 -8.0996,-6.4582 -8.0996,-23.3262 0,-13.8705 0.1041,-14.4128 3.4785,-18.1894 2.8923,-3.2371 7.1213,-4.7871 11.334,-4.791 z m 80.5625,1.1445 5.875,0 0,22.5 c 0,13.795 -0.4728,22.5 -1.2207,22.5 -0.7309,0 -1.3571,-8.3925 -1.5625,-20.9375 l -0.3418,-20.9375 -3.125,-0.418 c -5.9314,-0.794 -5.6664,-2.707 0.375,-2.707 z m -170.9688,0.1816 c 0.6454,-0.016 1.3705,0 2.1563,0.059 l 5.3125,0.3848 0.3438,21.1562 c 0.2152,13.2478 -0.1353,21.6353 -0.9376,22.4376 -0.875,0.875 -1.2812,-4.908 -1.2812,-18.2403 0,-10.7375 -0.3404,-20.4125 -0.7578,-21.5 -0.4499,-1.1725 -2.2305,-1.9785 -4.375,-1.9785 -1.9889,0 -3.6172,-0.5953 -3.6172,-1.3223 0,-0.5866 1.2201,-0.9477 3.1562,-0.9961 z m 259.6817,1.1543 c -1.8432,-0.077 -3.6618,0.3443 -5.6582,1.2539 -4.4726,2.0378 -6.2445,5.9096 -6.9004,15.0762 -0.8375,11.7049 0.565,19.5435 4.1387,23.1172 4.0892,4.0886 11.6628,4.0676 16.4492,-0.047 3.3474,-2.8774 3.5272,-3.5938 3.9394,-15.7031 0.4923,-14.4525 -0.8439,-19.2125 -6.1699,-21.9668 -2.088,-1.0797 -3.9557,-1.6537 -5.7988,-1.7305 z m -169.0781,0.01 c -1.9611,0 -3.9196,0.571 -6.1465,1.7226 -5.326,2.7543 -6.6622,7.5143 -6.1699,21.9668 0.4122,12.1093 0.592,12.8258 3.9394,15.7031 3.7994,3.2662 10.4208,4.0103 14.8047,1.6641 3.983,-2.1316 6.0625,-8.8796 6.0625,-19.6738 0,-12.0655 -1.6633,-17.2285 -6.3242,-19.6387 -2.2416,-1.1593 -4.205,-1.7408 -6.166,-1.7441 z m -170.1055,0.1328 c -3.9393,0.012 -7.8804,1.7322 -10.0176,5.1543 -2.1617,3.4616 -2.4468,5.7738 -2.1289,17.3339 0.3338,12.1328 0.6423,13.6319 3.3984,16.5625 2.36,2.5094 4.2391,3.2227 8.4942,3.2227 7.1775,0 11.0712,-3.7529 12.2832,-11.8359 1.1974,-7.984 0.081,-21.9739 -2.0234,-25.3438 -2.129,-3.409 -6.0666,-5.1058 -10.0059,-5.0937 z m 83.7832,69.7734 c 2.8529,0 6.8369,0.8536 8.8535,1.8965 6.0441,3.1255 7.459,7.5197 7.459,23.166 l 0,13.9375 -4.25,4.25 c -3.7436,3.7436 -5.0245,4.25 -10.75,4.25 -5.7255,0 -7.0064,-0.5064 -10.75,-4.25 l -4.25,-4.25 0,-15.25 0,-15.25 4.25,-4.25 c 3.4677,-3.4678 5.2051,-4.25 9.4375,-4.25 z m 170.0625,0 c 5.7255,0 7.0064,0.5064 10.75,4.25 l 4.25,4.25 0,15.25 0,15.25 -4.25,4.25 c -3.7436,3.7436 -5.0245,4.25 -10.75,4.25 -5.7255,0 -7.0064,-0.5064 -10.75,-4.25 l -4.25,-4.25 0,-15.25 0,-15.25 4.25,-4.25 c 3.7436,-3.7436 5.0245,-4.25 10.75,-4.25 z m -84.6367,0.6191 c 3.4414,0.3041 3.3867,4.64 3.3867,22.5782 0,12.7278 -0.502,21.9652 -1.2188,22.4082 -0.7692,0.4755 -1.3462,-6.9916 -1.5624,-20.2227 -0.325,-19.8736 -0.4752,-20.9964 -2.8438,-21.3769 -5.3461,-0.8589 -6.2983,-1.8876 -2.5,-2.7012 2.0556,-0.4403 3.5911,-0.7869 4.7383,-0.6856 z m -170.7422,0.084 c 3.9909,0.2426 4.1289,4.2036 4.1289,23.1094 0,13.2919 -0.4659,21.1875 -1.25,21.1875 -0.7775,0 -1.25,-7.048 -1.25,-18.6465 0,-10.2562 -0.3404,-19.5375 -0.7578,-20.625 -0.4173,-1.0875 -2.0731,-1.9785 -3.6777,-1.9785 -4.3619,0 -4.8402,-2.1379 -0.6172,-2.7578 1.377,-0.2021 2.5028,-0.345 3.4238,-0.2891 z m 338.9121,0.066 c 4.0669,-0.1526 3.9668,3.264 3.9668,23.1133 0,13.708 -0.4732,22.3672 -1.2207,22.3672 -0.7309,0 -1.3573,-8.3872 -1.5625,-20.9219 -0.3246,-19.8188 -0.4736,-20.9417 -2.8418,-21.3222 -5.4698,-0.8788 -6.2028,-1.9419 -1.875,-2.7188 1.4348,-0.2575 2.5947,-0.4823 3.5332,-0.5176 z M 1512.5,1430 c -9.9075,0 -12.9184,5.8197 -12.3066,23.7832 0.4122,12.1092 0.592,12.8238 3.9394,15.7012 3.7994,3.2661 10.4208,4.0103 14.8047,1.664 3.8821,-2.0776 6.0672,-8.8899 6.0547,-18.9199 C 1524.9797,1435.8883 1521.6715,1430 1512.5,1430 Z m 169.0527,0 c -9.1111,0 -12.789,6.111 -12.789,21.25 0,10.2655 1.8202,16.8919 5.3125,19.3379 4.1953,2.9386 11.4372,2.4241 15.541,-1.1035 3.3474,-2.8774 3.5272,-3.592 3.9394,-15.7012 0.6059,-17.7896 -2.4189,-23.7832 -12.0039,-23.7832 z m -85.3652,68.75 c 2.8529,0 6.8122,0.8398 8.7988,1.8672 6.6442,3.4359 7.5137,6.015 7.5137,22.2851 l 0,14.8477 -4.25,4.25 c -3.7436,3.7436 -5.0245,4.25 -10.75,4.25 -5.7255,0 -7.0064,-0.5064 -10.75,-4.25 l -4.25,-4.25 0,-15.25 0,-15.25 4.25,-4.25 c 3.4677,-3.4678 5.2051,-4.25 9.4375,-4.25 z m -169.75,0 c 6.4986,0.01 13.118,3.6641 14.8437,8.2031 0.6704,1.7632 1.2188,9.4135 1.2188,17 l 0,13.793 -4.25,4.25 c -3.7436,3.7436 -5.0245,4.25 -10.75,4.25 -5.7255,0 -7.0064,-0.5064 -10.75,-4.25 l -4.25,-4.25 0,-15.25 0,-15.25 4.25,-4.25 c 3.5332,-3.5332 5.1671,-4.2461 9.6875,-4.2461 z m 343.041,0.045 c 3.1322,0.019 4.2294,0.9091 7.3692,4.0489 l 4.4023,4.4023 0,15.25 0,15.25 -4.25,4.25 c -3.7436,3.7436 -5.0245,4.25 -10.75,4.25 -5.7555,0 -6.9977,-0.4977 -10.8516,-4.3516 l -4.3535,-4.3535 0.416,-15.623 c 0.3992,-15.0287 0.5408,-15.7494 3.7696,-18.9746 2.609,-2.6064 4.8991,-3.4811 10.2851,-3.9278 1.6471,-0.1366 2.9188,-0.2269 3.9629,-0.2207 z m -89.791,0.4922 c 4.0975,-0.2603 4.0625,3.3783 4.0625,23.3418 0,13.708 -0.4732,22.3672 -1.2207,22.3672 -0.7309,0 -1.3573,-8.3872 -1.5625,-20.9219 -0.3246,-19.8189 -0.4736,-20.9417 -2.8418,-21.3222 -5.522,-0.8872 -6.2122,-1.865 -1.9863,-2.8145 1.4369,-0.3228 2.6032,-0.5903 3.5488,-0.6504 z m -168.7578,0 c 4.092,-0.265 4.0703,3.2988 4.0703,22.6425 0,12.7357 -0.502,21.977 -1.2188,22.42 -0.7692,0.4755 -1.3462,-6.9916 -1.5624,-20.2227 -0.325,-19.8736 -0.4752,-20.9964 -2.8438,-21.3769 -5.522,-0.8872 -6.2122,-1.865 -1.9863,-2.8145 1.4333,-0.322 2.5967,-0.5873 3.541,-0.6484 z m -83.4844,1.8867 c -2.9076,-0.023 -5.8914,1.0053 -8.3125,3.0879 -3.4859,2.9982 -3.5078,3.1094 -3.5078,18.2324 0,15.123 0.022,15.2342 3.5078,18.2324 4.1034,3.5296 11.3443,4.045 15.541,1.1055 3.4415,-2.4105 5.3059,-9.0409 5.3184,-18.8691 0.01,-10.7049 -1.0597,-14.9464 -4.6895,-18.5762 -2.118,-2.118 -4.9498,-3.1903 -7.8574,-3.2129 z m 170.0547,0.07 c -9.3819,0 -12.5,5.3007 -12.5,21.25 0,11.8563 1.6559,17.4066 5.9375,19.9004 2.8967,1.6872 9.8469,1.6855 13,0 4.013,-2.1477 6.0625,-8.8726 6.0625,-19.8984 0,-15.4751 -3.397,-21.25 -12.5,-21.25 z m 168.6152,0.031 c -2.3933,0.021 -4.773,0.6697 -6.7617,1.9727 -3.7917,2.4845 -5.5898,8.6761 -5.5898,19.2461 0,10.2655 1.8202,16.8919 5.3125,19.3379 4.1967,2.9395 11.4376,2.4241 15.541,-1.1055 3.486,-2.9982 3.5078,-3.1094 3.5078,-18.2324 0,-15.123 -0.022,-15.2342 -3.5078,-18.2324 -2.3244,-1.9994 -5.4248,-3.0127 -8.502,-2.9864 z m -252.9277,69.9688 c 4.9433,0 6.4479,0.6354 10.0625,4.25 l 4.25,4.25 0,14.8477 c 0,16.2701 -0.8696,18.8492 -7.5137,22.2851 -1.9866,1.0274 -5.9459,1.8672 -8.7988,1.8672 -4.2324,0 -5.9698,-0.7823 -9.4375,-4.25 l -4.25,-4.25 0,-14.4414 c 0,-8.5341 0.6116,-15.7819 1.4941,-17.7188 1.9923,-4.3726 7.1118,-6.8398 14.1934,-6.8398 z m 168.0625,0 c 5.7255,0 7.0064,0.5064 10.75,4.25 l 4.25,4.25 0,15.25 0,15.25 -4.25,4.25 c -3.5332,3.5333 -5.1671,4.2461 -9.6875,4.2461 -5.9331,-0.01 -12.5764,-3.3194 -14.7324,-7.3477 -0.7314,-1.3666 -1.3301,-9.0461 -1.3301,-17.0664 l 0,-14.582 4.25,-4.25 c 3.7436,-3.7436 5.0245,-4.25 10.75,-4.25 z m -257.0762,0.033 c 1.3251,0.05 2.7073,0.2863 3.8496,0.7246 1.6982,0.6516 1.9766,3.8279 1.9766,22.5 0,13.6609 -0.4646,21.7422 -1.25,21.7422 -0.7806,0 -1.25,-7.4166 -1.25,-19.75 0,-20.9654 -0.4671,-22.75 -5.9492,-22.75 -1.6476,0 -2.6074,-0.5516 -2.1758,-1.25 0.5372,-0.8692 2.5903,-1.301 4.7988,-1.2168 z m 170,0 c 1.3251,0.05 2.7073,0.2863 3.8496,0.7246 1.6982,0.6516 1.9766,3.8279 1.9766,22.5 0,13.6609 -0.4646,21.7422 -1.25,21.7422 -0.7806,0 -1.25,-7.4166 -1.25,-19.75 0,-20.9654 -0.4671,-22.75 -5.9492,-22.75 -1.6476,0 -2.6074,-0.5516 -2.1758,-1.25 0.5372,-0.8692 2.5903,-1.301 4.7988,-1.2168 z m 168.8535,0.1348 c 0.2921,0.01 0.5868,0.025 0.877,0.053 l 4.2207,0.4043 0.3418,22.1875 c 0.2232,14.5144 -0.101,22.1875 -0.9375,22.1875 -0.8179,0 -1.2793,-7.1197 -1.2793,-19.75 0,-21.0875 -0.4476,-22.75 -6.125,-22.75 -2.2248,0 -2.7378,-0.3872 -1.7832,-1.3418 0.6454,-0.6454 2.641,-1.0481 4.6855,-0.9902 z m -250.0918,2.332 c -3.1934,-9e-4 -6.4943,1.0313 -8.8027,3.0156 -3.3474,2.8774 -3.5272,3.5919 -3.9394,15.7012 -0.4648,13.6474 0.7733,18.8159 5.2578,21.957 3.3507,2.3478 8.7043,2.3272 13.3027,-0.051 4.4191,-2.2852 6.2324,-7.9211 6.2324,-19.373 0,-10.2655 -1.8202,-16.8919 -5.3125,-19.3379 -1.8355,-1.2856 -4.2544,-1.9114 -6.7383,-1.9121 z m 168.5235,0 c -9.3514,0 -12.6887,5.7797 -12.7012,22 -0.01,10.8959 1.737,16.2537 6.0625,18.6035 6.5814,3.5755 13.944,1.6605 17.1035,-4.4492 1.6074,-3.108 1.9548,-6.7517 1.6231,-17.0391 -0.4049,-12.553 -0.5652,-13.2098 -3.9297,-16.1015 -2.3475,-2.0178 -5.0442,-3.0137 -8.1582,-3.0137 z m -83.8067,68.3242 c 4.4311,0.079 8.6897,2.0493 11.6426,5.5586 3.0409,3.6137 3.2051,4.5605 3.2051,18.4356 0,16.0308 -0.8878,18.638 -7.5137,22.0644 -6.8894,3.5626 -15.2787,1.9438 -19.8144,-3.8223 -2.3869,-3.0345 -2.6719,-4.9728 -2.6719,-18.1328 0,-13.9928 0.1613,-14.9277 3.2051,-18.5449 1.7629,-2.0951 5.1379,-4.344 7.5,-4.9961 1.4733,-0.4068 2.9702,-0.5889 4.4472,-0.5625 z m 168.75,0 c 4.4311,0.079 8.6897,2.0493 11.6426,5.5586 3.0515,3.6265 3.2051,4.5301 3.2051,18.8379 l 0,15.0293 -4.25,4.25 c -3.5332,3.5332 -5.1671,4.2461 -9.6875,4.2461 -5.9331,-0.01 -12.5764,-3.3174 -14.7324,-7.3457 -0.7314,-1.3666 -1.3301,-8.9491 -1.3301,-16.8477 0,-13.591 0.1716,-14.5649 3.2051,-18.1699 1.7629,-2.0951 5.1379,-4.342 7.5,-4.9941 1.4733,-0.4069 2.9702,-0.5909 4.4472,-0.5645 z m -338.7128,0.076 c 4.0284,-0.074 7.3976,1.4367 10.5605,4.5996 l 4.25,4.25 0,13.793 c 0,16.0143 -0.9436,19.2944 -6.5312,22.7011 -2.4295,1.4814 -6.3042,2.502 -9.5313,2.502 -4.5204,0 -6.1543,-0.7129 -9.6875,-4.2461 l -4.25,-4.25 0,-14.5625 c 0,-16.287 1.3707,-20.6989 7.1289,-22.9551 2.9896,-1.1713 5.6435,-1.7874 8.0606,-1.832 z m 79.7089,0.3496 c 7.7683,0 7.6016,-0.5089 7.6016,23.2578 0,13.6609 -0.4646,21.7422 -1.25,21.7422 -0.7806,0 -1.25,-7.4166 -1.25,-19.75 0,-20.9121 -0.4746,-22.75 -5.875,-22.75 -1.5813,0 -2.875,-0.5625 -2.875,-1.25 0,-0.6875 1.6422,-1.25 3.6484,-1.25 z m 170.6289,0.168 c 0.2921,0.01 0.5868,0.025 0.877,0.053 l 4.2207,0.4043 0.3418,22.1875 c 0.2232,14.5144 -0.101,22.1875 -0.9375,22.1875 -0.8179,0 -1.2793,-7.1198 -1.2793,-19.75 0,-21.0875 -0.4476,-22.75 -6.125,-22.75 -2.2247,0 -2.7378,-0.3872 -1.7832,-1.3418 0.6454,-0.6454 2.641,-1.0481 4.6855,-0.9902 z m -249.6992,2.3164 c -3.3444,-0.068 -6.8207,0.9898 -9.1953,3.0312 -3.3474,2.8773 -3.5272,3.5919 -3.9394,15.7012 -0.4648,13.6473 0.7733,18.8159 5.2578,21.957 3.3507,2.3477 8.7043,2.3271 13.3027,-0.051 4.5138,-2.3341 6.2258,-7.9319 6.2383,-20.3515 0.01,-10.03 -2.1726,-16.8423 -6.0547,-18.9199 -1.644,-0.8799 -3.6027,-1.3266 -5.6094,-1.3672 z m 170,0 c -3.3444,-0.068 -6.8207,0.9898 -9.1953,3.0312 -3.3474,2.8773 -3.5272,3.5919 -3.9394,15.7012 -0.4857,14.26 0.8327,19.1454 5.916,21.9082 6.8036,3.6977 15.1653,0.9406 17.5058,-5.7734 1.9718,-5.6561 1.7344,-22.8442 -0.3847,-27.9161 -0.9732,-2.3289 -2.905,-4.841 -4.293,-5.5839 -1.644,-0.8799 -3.6027,-1.3266 -5.6094,-1.3672 z M 1766.123,1645 c -9.6571,0 -13.3847,8.0431 -12.0937,26.0859 0.636,8.8897 2.3972,12.9503 6.5352,15.0664 3.8011,1.944 11.9187,0.6712 14.9316,-2.3418 2.3815,-2.3814 2.6289,-4.0496 2.6289,-17.7031 0,-14.9663 -0.026,-15.0944 -3.5078,-18.0898 -2.44,-2.0988 -5.0244,-3.0176 -8.4942,-3.0176 z m -84.7832,68.8477 c 2.0399,0.01 4.1393,0.6052 6.6504,1.7968 6.8384,3.245 8.2598,7.2583 8.2598,23.3321 0,15.5873 -0.9227,18.2478 -7.5137,21.6562 -7.5478,3.9031 -18.6293,0.5996 -21.2675,-6.3398 -0.6704,-1.7631 -1.2188,-9.2801 -1.2188,-16.7051 0,-14.8609 1.3006,-18.1108 8.7988,-21.9883 2.2721,-1.175 4.2512,-1.7591 6.291,-1.7519 z m -169.9179,0.3554 c 4.6526,-0.255 9.3635,1.7593 12.9121,5.9766 2.9669,3.526 3.166,4.6244 3.166,17.4785 0,15.4102 -1.4372,19.8313 -7.459,22.9453 -7.1596,3.7023 -17.7705,0.9732 -21.2109,-5.4551 -0.7314,-1.3666 -1.3301,-9.2285 -1.3301,-17.4707 0,-14.9809 0,-14.9858 3.7461,-18.7304 2.9738,-2.9739 6.5571,-4.5458 10.1758,-4.7442 z m -89.5157,0.9785 c 0.6454,-0.016 1.3705,0 2.1563,0.059 l 5.3125,0.3848 0.3418,22.1875 c 0.2232,14.5144 -0.101,22.1875 -0.9375,22.1875 -0.8179,0 -1.2793,-7.1198 -1.2793,-19.75 0,-20.9121 -0.4746,-22.75 -5.875,-22.75 -1.5812,0 -2.875,-0.5953 -2.875,-1.3223 0,-0.5865 1.2201,-0.9477 3.1562,-0.9961 z m 170,0 c 0.6454,-0.016 1.3705,0 2.1563,0.059 l 5.3125,0.3848 0.3418,22.1875 c 0.2232,14.5144 -0.101,22.1875 -0.9375,22.1875 -0.8179,0 -1.2793,-7.1198 -1.2793,-19.75 0,-20.9121 -0.4746,-22.75 -5.875,-22.75 -1.5812,0 -2.875,-0.5953 -2.875,-1.3223 0,-0.5865 1.2201,-0.9477 3.1562,-0.9961 z m 168.75,0 c 0.6454,-0.016 1.3705,0 2.1563,0.059 l 5.3125,0.3848 0.3418,22.1875 c 0.2232,14.5144 -0.101,22.1875 -0.9375,22.1875 -0.8179,0 -1.2793,-7.1198 -1.2793,-19.75 0,-20.9121 -0.4746,-22.75 -5.875,-22.75 -1.5812,0 -2.875,-0.5953 -2.875,-1.3223 0,-0.5865 1.2201,-0.9477 3.1562,-0.9961 z m -248.9121,2.0684 c -3.2556,0 -5.5006,0.938 -7.8398,3.2754 -3.0278,3.0256 -3.3119,4.2359 -3.7109,15.8281 -0.486,14.1176 0.844,19.0149 5.916,21.7715 5.149,2.7984 9.6794,2.2518 14.1035,-1.7012 3.8381,-3.4293 4.0219,-4.0349 4.5391,-14.8515 0.8465,-17.7052 -2.6926,-24.3223 -13.0079,-24.3223 z m 169.8555,0.25 c -10.3111,0 -13.6496,6.7175 -12.5742,25.2949 0.5475,9.4565 0.8444,10.3523 4.5488,13.6621 4.4044,3.9354 8.5411,4.4525 13.8125,1.7266 5.3083,-2.745 6.6628,-7.5241 6.1699,-21.7578 -0.3866,-11.1678 -0.751,-12.819 -3.4628,-15.7031 -2.3603,-2.5102 -4.2386,-3.2227 -8.4942,-3.2227 z m 84.0918,67.6211 c 2.313,-0.092 4.6833,0.658 7.8613,2.2793 6.5658,3.3497 7.6973,6.7295 7.6973,23.0058 0,15.3941 -0.9383,18.0764 -7.5137,21.4766 -4.5492,2.3524 -10.8513,2.315 -15.2832,-0.09 -5.7751,-3.1335 -7.2031,-7.6562 -7.2031,-22.8125 0,-15.0185 1.283,-18.2442 8.7988,-22.1309 2.0803,-1.0758 3.8436,-1.6567 5.6426,-1.7285 z m -168.1016,0.2773 c 3.7806,0.1278 7.435,1.8765 10.7598,5.2012 l 4.1504,4.1504 0,13.9375 c 0,15.6463 -1.4149,20.0405 -7.459,23.166 -7.1596,3.7023 -17.7706,0.9732 -21.2109,-5.4551 -0.7314,-1.3666 -1.3301,-8.737 -1.3301,-16.3789 0,-16.0856 1.3307,-19.8361 8.1914,-23.0918 2.3153,-1.0986 4.6301,-1.6059 6.8984,-1.5293 z m -170.8339,0.1075 c 4.5662,0.028 9.265,1.9862 12.5273,5.8632 3.0284,3.599 3.2168,4.6275 3.2168,17.5391 0,15.4102 -1.4372,19.8313 -7.459,22.9453 -7.1596,3.7023 -17.7706,0.9732 -21.2109,-5.4551 -0.7314,-1.3666 -1.3301,-9.0432 -1.3301,-17.0605 0,-12.6136 0.34,-15.0536 2.5215,-18.1172 2.7346,-3.8404 7.1681,-5.7427 11.7344,-5.7148 z m 80.1503,0.9257 c 0.6454,-0.016 1.3705,0 2.1563,0.059 l 5.3125,0.3848 0.3418,22.1875 c 0.2232,14.5144 -0.101,22.1875 -0.9375,22.1875 -0.8179,0 -1.2793,-7.1198 -1.2793,-19.75 0,-20.9121 -0.4746,-22.75 -5.875,-22.75 -1.5813,0 -2.875,-0.5953 -2.875,-1.3223 0,-0.5865 1.2201,-0.9477 3.1562,-0.9961 z m 168.75,0 c 0.6454,-0.016 1.3705,0 2.1563,0.059 l 5.3125,0.3848 0.3418,22.1875 c 0.2232,14.5144 -0.101,22.1875 -0.9375,22.1875 -0.8179,0 -1.2793,-7.1198 -1.2793,-19.75 0,-20.9121 -0.4746,-22.75 -5.875,-22.75 -1.5812,0 -2.875,-0.5953 -2.875,-1.3223 0,-0.5865 1.2201,-0.9477 3.1562,-0.9961 z m -249.0898,1.8555 c -2.9999,0.081 -5.7237,1.3605 -8.0293,3.8125 -2.57,2.7332 -2.9624,4.5593 -3.3437,15.5762 -0.4863,14.0422 0.85,18.9458 5.916,21.6992 5.1552,2.8017 9.6787,2.2528 14.1191,-1.7148 3.8899,-3.4757 4.0338,-3.962 4.5313,-15.3379 0.6305,-14.415 -1.298,-20.276 -7.5274,-22.8789 -1.9663,-0.8216 -3.8661,-1.2046 -5.666,-1.1563 z m 340.0332,0.4629 c -10.2739,0 -13.8883,7.6761 -12.5332,26.6152 0.5719,7.9939 1.0273,9.2312 4.5547,12.3828 4.3612,3.8967 8.5077,4.4045 13.7656,1.6856 5.3083,-2.745 6.6628,-7.5241 6.1699,-21.7578 -0.3866,-11.1678 -0.751,-12.819 -3.4628,-15.7031 -2.3603,-2.5102 -4.2386,-3.2227 -8.4942,-3.2227 z m -170.4531,0.1758 c -3.8336,-0.095 -5.1206,0.5271 -7.4375,2.9922 -2.7204,2.8943 -3.1367,4.6165 -3.5293,14.6484 -0.5366,13.7106 1.1189,20.2001 5.8027,22.7422 5.3078,2.8809 9.7724,2.3498 14.3106,-1.7051 l 4.082,-3.6484 0,-13.7617 c 0,-12.0288 -0.3311,-14.2041 -2.627,-17.2891 -2.1662,-2.9105 -3.7061,-3.5945 -8.791,-3.8984 -0.6619,-0.04 -1.2629,-0.067 -1.8105,-0.08 z M 1681.25,1857.5 c 4.5505,0 11.2438,3.864 13.1797,7.6074 1.279,2.4732 1.8203,7.7273 1.8203,17.6778 0,15.525 -0.9277,18.1919 -7.5137,21.5976 -7.4646,3.8601 -17.0512,1.2529 -20.5957,-5.6016 -2.5907,-5.0092 -2.6397,-28.7051 -0.07,-33.6738 1.9359,-3.7434 8.6292,-7.6074 13.1797,-7.6074 z m -168.709,0.072 c 3.9962,0.1309 7.9362,2.0162 11.1133,5.6347 3.8137,4.3422 3.8446,4.5001 3.8008,18.3985 -0.048,15.3192 -0.9741,18.2952 -6.9141,22.2109 -6.6932,4.4121 -18.1004,1.8281 -21.7109,-4.918 -0.7314,-1.3666 -1.3301,-9.314 -1.3301,-17.6621 0,-15.0476 0.031,-15.2088 3.5898,-18.7675 3.4029,-3.4029 7.455,-5.0275 11.4512,-4.8965 z m -90.6348,1.3593 c 0.6454,-0.016 1.3705,0 2.1563,0.059 l 5.3125,0.3848 0.3418,22.1875 c 0.2232,14.5144 -0.101,22.1875 -0.9375,22.1875 -0.8179,0 -1.2793,-7.1198 -1.2793,-19.75 0,-20.9121 -0.4746,-22.75 -5.875,-22.75 -1.5813,0 -2.875,-0.5953 -2.875,-1.3223 0,-0.5865 1.2201,-0.9477 3.1562,-0.9961 z m 170,0 c 0.6454,-0.016 1.3705,0 2.1563,0.059 l 5.3125,0.3848 0.3418,22.1875 c 0.2232,14.5144 -0.101,22.1875 -0.9375,22.1875 -0.8179,0 -1.2793,-7.1198 -1.2793,-19.75 0,-20.9121 -0.4746,-22.75 -5.875,-22.75 -1.5813,0 -2.875,-0.5953 -2.875,-1.3223 0,-0.5865 1.2201,-0.9477 3.1562,-0.9961 z m 168.75,0 c 0.6454,-0.016 1.3705,0 2.1563,0.059 l 5.3125,0.3848 0.3418,22.1875 c 0.2232,14.5144 -0.101,22.1875 -0.9375,22.1875 -0.8165,0 -1.2793,-6.9684 -1.2793,-19.2734 0,-10.6 -0.3404,-20.1625 -0.7578,-21.25 -0.4499,-1.1725 -2.2305,-1.9766 -4.375,-1.9766 -1.9889,0 -3.6172,-0.5953 -3.6172,-1.3223 0,-0.5865 1.2201,-0.9477 3.1562,-0.9961 z m -248.2558,1.75 c -3.6771,0 -5.7584,0.8584 -8.3379,3.4356 -3.2594,3.2564 -3.4598,4.1331 -3.8555,16.9375 -0.4026,13.032 -0.3024,13.6415 2.8555,17.3945 1.7999,2.139 4.5196,4.1152 6.043,4.3926 4.518,0.8224 8.8219,-0.451 12.0703,-3.5703 2.6834,-2.5768 3.1131,-4.269 3.582,-14.0762 0.8334,-17.4313 -2.7357,-24.5137 -12.3574,-24.5137 z m 168.9492,0 c -9.6076,0 -13.1911,7.0862 -12.3613,24.4414 0.4512,9.4387 0.9576,11.533 3.4258,14.1602 1.5931,1.6958 4.0932,3.3116 5.5547,3.5898 6.0037,1.1432 12.5672,-1.8816 14.5683,-6.7128 0.8893,-2.1468 1.2842,-8.3702 1.0195,-16.0567 -0.4043,-11.7504 -0.651,-12.7707 -3.8691,-15.9863 -2.5798,-2.578 -4.6604,-3.4356 -8.3379,-3.4356 z m 85.0566,66.9219 c 2.0711,0.03 4.2311,0.6747 6.8965,1.9395 6.6307,3.1465 7.9473,6.9956 7.9473,23.2422 0,15.525 -0.9277,18.1919 -7.5137,21.5976 -4.5492,2.3524 -10.8513,2.315 -15.2832,-0.09 -5.7751,-3.1335 -7.2031,-7.6562 -7.2031,-22.8125 0,-15.0185 1.283,-18.2442 8.7988,-22.1309 2.3057,-1.1922 4.2864,-1.7763 6.3574,-1.7461 z m -340.1113,0.2285 c 4.7049,-0.2025 9.4933,1.8829 13.1055,6.1758 2.8875,3.4316 3.0996,4.6234 3.0996,17.4004 0,15.4102 -1.4372,19.8313 -7.459,22.9453 -7.1596,3.7023 -17.7705,0.9732 -21.2109,-5.4551 -0.7314,-1.3666 -1.3301,-9.314 -1.3301,-17.6621 0,-15.02 0.038,-15.2154 3.5625,-18.7402 2.9648,-2.9647 6.5731,-4.5066 10.2324,-4.6641 z m 171.2949,0.066 c 3.7806,0.1278 7.435,1.8765 10.7598,5.2012 l 4.1504,4.1504 0,13.9375 c 0,15.6463 -1.4149,20.0405 -7.459,23.166 -7.1596,3.7023 -17.7705,0.9732 -21.2109,-5.4551 -0.7314,-1.3666 -1.3301,-8.737 -1.3301,-16.3789 0,-16.0856 1.3307,-19.8361 8.1914,-23.0918 2.3153,-1.0986 4.6301,-1.6059 6.8984,-1.5293 z m -90.6836,1.0332 c 0.6454,-0.016 1.3705,0 2.1563,0.059 l 5.3125,0.3848 0.3418,22.1875 c 0.2232,14.5144 -0.101,22.1875 -0.9375,22.1875 -0.8179,0 -1.2793,-7.1198 -1.2793,-19.75 0,-20.9121 -0.4746,-22.75 -5.875,-22.75 -1.5813,0 -2.875,-0.5953 -2.875,-1.3223 0,-0.5865 1.2201,-0.9477 3.1562,-0.9961 z m 168.75,0 c 0.6454,-0.016 1.3705,0 2.1563,0.059 l 5.3125,0.3848 0.3418,22.1875 c 0.2232,14.5144 -0.101,22.1875 -0.9375,22.1875 -0.8179,0 -1.2793,-7.1198 -1.2793,-19.75 0,-20.9121 -0.4746,-22.75 -5.875,-22.75 -1.5813,0 -2.875,-0.5953 -2.875,-1.3223 0,-0.5865 1.2201,-0.9477 3.1562,-0.9961 z m -77.7363,1.8692 c -3.3327,-0.1805 -6.7793,1.0309 -9.3828,3.8008 -2.5185,2.6795 -2.9724,4.6294 -3.3574,14.4648 -0.5366,13.7106 1.1189,20.2001 5.8027,22.7422 6.7744,3.6769 13.9684,1.5792 17.0821,-4.9824 2.5365,-5.3458 2.6008,-22.8149 0.1054,-28.7871 -1.8698,-4.4751 -5.9651,-7.0062 -10.25,-7.2383 z m 169.086,0.1992 c -10.2375,0 -13.9188,7.1278 -12.9805,25.1289 0.5171,9.9245 0.7649,10.699 4.5293,14.0625 4.4227,3.9516 8.5549,4.4711 13.832,1.7422 5.3144,-2.7483 6.6626,-7.5206 6.1699,-21.8301 -0.399,-11.5922 -0.6831,-12.8025 -3.7109,-15.8281 -2.3392,-2.3374 -4.5842,-3.2754 -7.8398,-3.2754 z m -339.8555,0.25 c -4.2556,0 -6.1339,0.7125 -8.4942,3.2227 -2.7118,2.8841 -3.0762,4.5353 -3.4628,15.7031 -0.4863,14.0422 0.85,18.9458 5.916,21.6992 5.1162,2.7806 9.6793,2.2511 14.0195,-1.627 3.5274,-3.1516 3.9828,-4.3889 4.5547,-12.3828 1.3551,-18.9391 -2.2593,-26.6152 -12.5332,-26.6152 z"
       transform="translate(-1705.7143,-616.20925)"
       id="path4151"
       inkscape:connector-curvature="0" />
    <rect
       y="-616.20923"
       x="289.64664"
       height="2000"
       width="379.25873"
       id="rect4183"
       style="opacity:1;fill:#334a71;fill-opacity:1;stroke:none;stroke-width:3;stroke-linecap:round;stroke-linejoin:round;stroke-miterlimit:4;stroke-dasharray:none;stroke-dashoffset:0;stroke-opacity:1"
       rx="12.121831"
       ry="12.121831" />
    <path
       style="fill:#334a71"
       d="m 0,0 0,1000 0,1000 1600,0 550,0 L 2150,0 1600,0 0,0 Z m 1603.75,744.74805 c 15.4973,0 19.9366,0.47218 30.6152,3.25586 20.5453,5.35569 36.4405,13.88757 53.3496,28.63476 l 9.3985,8.19531 9.8808,-0.96289 c 18.4697,-1.79925 36.7142,1.4399 52.0801,9.2461 30.1105,15.29694 47.6343,42.15781 49.3438,75.63281 l 0.6699,13.125 12.0195,0.0508 c 10.3051,0.043 13.0434,0.52267 19.209,3.36914 16.673,7.69731 27.1169,22.98823 28.1875,41.26758 l 0.5664,9.6875 16.1309,0 c 17.4429,0 21.275,0.92794 28.291,6.84375 11.4901,9.68824 12.8836,26.71923 3.1191,38.12695 -6.1231,7.1534 -12.328,9.97074 -23.9277,10.86524 l -9.7539,0.75195 -1.4629,7.08203 c -2.619,12.68046 -11.8785,23.61426 -24.166,28.53316 -5.0858,2.036 -22.0117,2.1875 -270.4258,2.4102 -290.6753,0.2606 -272.3564,0.7257 -283.9004,-7.2168 -3.089,-2.1253 -7.2785,-6.1584 -9.3086,-8.961 -13.8101,-19.06425 -7.0835,-45.42338 14.2735,-55.93743 l 8.0468,-3.96094 27.2481,0.0312 c 14.9867,0.0171 27.6986,-0.24832 28.248,-0.58789 0.5495,-0.33956 -0.1126,-2.79478 -1.4707,-5.45703 -8.091,-15.85968 -10.3588,-43.09928 -5.1484,-61.82813 4.6609,-16.75411 11.6282,-28.51658 24.4746,-41.32031 12.5716,-12.53007 21.172,-18.14558 35.6406,-23.26562 18.0899,-6.4015 38.3986,-7.42501 56.0547,-2.82618 3.7529,0.97752 6.9387,1.62417 7.0801,1.43555 0.1414,-0.18863 2.3639,-4.5625 4.9394,-9.71875 9.4135,-18.8463 23.6835,-34.53427 42.5723,-46.80273 12.6854,-8.23932 22.4929,-12.52468 37.8223,-16.52344 10.3361,-2.69624 14.9187,-3.17578 30.3027,-3.17578 z m -6.4492,321.50195 c 5.65,0 6.897,0.5264 11.3965,4.8066 l 5.0527,4.8067 0,15.6504 c 0,17.2287 -1.0599,20.1348 -8.7988,24.1367 -7.4026,3.828 -18.4289,0.9188 -21.8907,-5.7754 -1.2892,-2.493 -1.8105,-7.8788 -1.8105,-18.7109 l 0,-15.209 4.8535,-4.8516 c 4.3624,-4.3624 5.4942,-4.8535 11.1973,-4.8535 z m 169.3047,0 c 5.5222,0 6.7107,0.5232 11.041,4.8535 l 4.8535,4.8516 0,15.2676 c 0,16.7808 -1.1416,20.4475 -7.5488,24.2324 -7.183,4.2431 -18.3056,1.3754 -23.1114,-5.959 -1.6866,-2.5739 -1.9734,-5.9057 -1.6308,-18.9551 l 0.416,-15.832 4.8965,-4.2305 c 4.1406,-3.5768 5.8497,-4.2285 11.084,-4.2285 z m -339.6582,0.01 c 3.3983,-0.1239 6.7741,0.6886 9.4414,2.5879 6.1785,4.3994 7.3613,8.2651 7.3613,24.0468 0,15.706 -1.2087,18.8309 -8.7988,22.7559 -6.9425,3.5901 -16.6029,1.4428 -21.4864,-4.7754 -1.7867,-2.2751 -2.1563,-5.4481 -2.1425,-18.375 0.011,-10.3443 0.5581,-16.6019 1.6191,-18.5137 2.6152,-4.7128 8.3419,-7.5202 14.0059,-7.7265 z m 77.5351,1.3593 c 0.9758,0 2.2372,0.043 3.8516,0.127 l 7.291,0.3789 0,23.6465 c 0,17.0834 -0.4108,23.7828 -1.4785,24.1387 -3.123,1.041 -4.1465,-4.8544 -4.1465,-23.8731 l 0,-19.3789 -4.0527,-0.3906 c -2.7189,-0.2628 -4.1921,-1.1349 -4.4785,-2.6465 -0.2837,-1.4964 0.086,-1.9893 3.0136,-2.002 z m 173.0176,0.5059 6.875,0 0,23.6465 c 0,17.8002 -0.3868,23.7741 -1.5625,24.166 -2.4523,0.8174 -2.7683,-1.5049 -3.1133,-22.8125 l -0.3242,-20 -4.375,-0.625 c -2.7778,-0.3968 -4.375,-1.3095 -4.375,-2.5 0,-1.4394 1.5972,-1.875 6.875,-1.875 z m -79.8164,4.375 c -8.9335,0 -11.4336,4.207 -11.4336,19.2324 0,12.9496 1.2666,16.603 6.5527,18.9004 5.036,2.1887 4.0429,2.1745 8.9434,0.127 5.18,-2.1644 7.0086,-6.8992 6.9961,-18.1348 -0.013,-15.0729 -2.7892,-20.125 -11.0586,-20.125 z m 167.9668,0.039 c -2.3979,0.01 -4.6783,0.513 -6.1055,1.5566 -4.1522,3.0362 -5.9701,20.0975 -3.2031,30.0625 0.9929,3.5756 2.3338,5.214 5.3066,6.4844 4.6687,1.995 9.2356,1.2494 12.7266,-2.0781 2.2184,-2.1146 2.5,-4.011 2.5,-16.834 0,-13.6788 -0.1578,-14.5799 -2.9512,-16.8418 -1.9124,-1.5486 -5.1903,-2.3599 -8.2734,-2.3496 z m -338.0859,0 c -2.9466,0.073 -5.938,0.8872 -7.7383,2.3437 -2.7074,2.1903 -2.9796,3.4545 -3.3028,15.3125 -0.3855,14.1474 0.7415,18.0336 6.002,20.6953 3.9119,1.9793 4.1711,1.9742 9.3027,-0.1699 5.0379,-2.105 6.9082,-7.206 6.9082,-18.8496 0,-9.4776 -1.9185,-16.4821 -4.959,-18.1094 -1.657,-0.8868 -3.9211,-1.2795 -6.2128,-1.2226 z m 256.9472,66.25 c 3.2175,0.017 4.3002,0.974 7.8574,4.5312 4.1619,4.1619 5.018,5.9595 5.793,12.1621 1.2415,9.9369 0.064,22.5944 -2.4609,26.4473 -1.1478,1.7517 -3.8851,4.2815 -6.0821,5.6211 -5.0695,3.091 -11.638,3.1092 -16.6601,0.047 -7.2135,-4.3986 -7.959,-6.5999 -7.959,-23.5235 l 0,-15.3652 4.1699,-4.5488 c 3.6451,-3.9775 5.0576,-4.6239 11.2422,-5.1368 1.7176,-0.1424 3.0271,-0.2399 4.0996,-0.2343 z m -173.7832,0.086 c 0.9755,0 2.0651,0.062 3.336,0.1836 5.3687,0.5159 7.0766,1.3462 10.5468,5.1328 l 4.1387,4.5176 -0.018,14.707 c -0.021,16.4379 -0.9404,19.3956 -7.373,23.7305 -7.625,5.1385 -18.1367,2.685 -23.4785,-5.4785 -1.842,-2.815 -2.233,-5.9001 -2.1368,-16.8321 0.1374,-15.5197 1.573,-20.0009 7.6075,-23.7304 2.5643,-1.5848 4.4504,-2.2187 7.3769,-2.2305 z m -86.9785,1.7461 6.875,0 0,23.6465 c 0,23.4028 -0.5611,26.5423 -4.1094,22.9941 -1.063,-1.063 -1.5156,-7.5753 -1.5156,-21.8105 l 0,-20.2969 -4.0625,-0.3906 c -2.6037,-0.2511 -4.0625,-1.0659 -4.0625,-2.2676 0,-1.4394 1.5972,-1.875 6.875,-1.875 z m 170,0 6.875,0 0,23.6465 c 0,16.8078 -0.418,23.7839 -1.4473,24.1269 -2.8501,0.9501 -3.5443,-3.0596 -3.9843,-23.0156 l -0.4473,-20.2441 -3.9356,-0.3809 c -2.495,-0.2423 -3.9355,-1.0691 -3.9355,-2.2578 0,-1.4394 1.5973,-1.875 6.875,-1.875 z m 168.75,0 6.875,0 0,23.6465 c 0,17.8002 -0.3867,23.7741 -1.5625,24.166 -2.4523,0.8174 -2.7683,-1.5049 -3.1133,-22.8125 l -0.3242,-20 L 1760,1145 c -2.7777,-0.3968 -4.375,-1.3095 -4.375,-2.5 0,-1.4394 1.5973,-1.875 6.875,-1.875 z m -250.8203,3.5059 c -1.1703,-0.01 -2.2307,0.3459 -3.7129,1.0566 -5.6933,2.7298 -6.8365,6.4349 -6.4434,20.8633 0.3232,11.858 0.5954,13.1222 3.3028,15.3125 3.2005,2.5893 10.1636,3.1481 13.9511,1.1211 3.1263,-1.6731 4.9721,-8.7413 4.8946,-18.7344 -0.092,-11.6979 -2.0233,-16.3933 -7.6172,-18.5156 -1.9248,-0.7303 -3.2047,-1.0968 -4.375,-1.1035 z m 170.2031,0.037 c -4.5944,-0.075 -9.1316,2.8482 -10.5683,8.0215 -2.8683,10.3284 -0.9004,27.7185 3.4218,30.2382 3.5583,2.0744 10.9993,1.5153 14.1875,-1.0664 2.7913,-2.2602 2.9512,-3.1668 2.9512,-16.7441 0,-12.2224 -0.3434,-14.7359 -2.3164,-16.916 -2.1406,-2.3654 -4.9191,-3.4883 -7.6758,-3.5332 z m -255.6816,65.83 c 4.8876,-0.153 9.9351,1.6583 13.4433,5.4864 l 4.1055,4.4785 0,15.4746 c 0,17.0354 -1.0778,19.9701 -8.7988,23.9629 -4.8891,2.5282 -11.0495,2.3127 -15.7422,-0.5488 -7.2215,-4.4034 -7.959,-6.5909 -7.959,-23.625 0,-13.395 0.3297,-15.9304 2.4668,-18.9317 2.8681,-4.0278 7.5967,-6.1438 12.4844,-6.2969 z m 343.3203,0.043 c 3.2235,0.019 4.3098,0.9974 7.9707,4.6582 l 5.0078,5.0059 0,15.6035 c 0,17.1775 -1.0647,20.0923 -8.7988,24.0918 -4.8892,2.5282 -11.0495,2.3127 -15.7422,-0.5488 -7.2135,-4.3985 -7.959,-6.5999 -7.959,-23.5235 l 0,-15.3652 4.1699,-4.5488 c 3.6451,-3.9775 5.0576,-4.6239 11.2422,-5.1368 1.7239,-0.1429 3.0349,-0.2426 4.1094,-0.2363 z m -173.1836,0.1797 c 0.8903,-0.027 1.8006,0 2.7266,0.092 5.3687,0.5159 7.0746,1.3462 10.5449,5.1328 l 4.1406,4.5176 0,15.4746 c 0,17.0354 -1.0778,19.9701 -8.7988,23.9629 -7.2009,3.7236 -16.7997,1.1449 -21.6797,-5.8223 -2.4884,-3.5527 -2.9083,-30.2646 -0.5567,-35.4258 2.1752,-4.7739 7.3907,-7.7412 13.6231,-7.9316 z m -87.5879,1.6543 6.875,0 0.3398,23.293 c 0.2889,19.8092 0.058,23.4011 -1.5429,24.0156 -3.4587,1.3271 -4.4219,-3.7654 -4.4219,-23.3965 l 0,-19.3789 -4.0625,-0.3906 c -2.6038,-0.2511 -4.0625,-1.0659 -4.0625,-2.2676 0,-1.4394 1.5972,-1.875 6.875,-1.875 z m 168.75,0 6.875,0 0,23.6465 c 0,17.8003 -0.3868,23.7741 -1.5625,24.166 -2.4523,0.8175 -2.7683,-1.5049 -3.1133,-22.8125 l -0.3242,-20 -4.375,-0.625 c -2.7778,-0.3968 -4.375,-1.3095 -4.375,-2.5 0,-1.4394 1.5972,-1.875 6.875,-1.875 z m -250.8203,3.5059 c -1.1703,-0.01 -2.2307,0.3459 -3.7129,1.0566 -5.2295,2.5075 -6.6779,6.6027 -6.6992,18.9375 -0.018,11.021 1.7659,17.3794 5.2695,18.7891 2.7928,1.1237 9.7985,0.877 12.2402,-0.4297 3.1263,-1.6731 4.9721,-8.7413 4.8946,-18.7344 -0.092,-11.6979 -2.0233,-16.3933 -7.6172,-18.5156 -1.9248,-0.7303 -3.2047,-1.0968 -4.375,-1.1035 z m 340.4258,0.07 c -3.9448,-0.012 -9.0227,2.4789 -10.0801,5.2343 -3.2095,8.364 -2.0845,28.0054 1.8281,31.918 l 0,-0.01 c 3.1824,3.1871 11.1447,3.1924 15.0703,0.014 2.7913,-2.2602 2.9512,-3.1668 2.9512,-16.7441 0,-15.8673 -1.1462,-18.7086 -8.1641,-20.25 -0.5022,-0.1103 -1.0419,-0.1643 -1.6054,-0.166 z m -170.4981,0.072 c -2.7125,0.1056 -5.401,1.2016 -7.4121,3.4239 -1.7361,1.9183 -2.4262,5.029 -2.7637,12.4589 -0.5507,12.1292 0.4562,17.9816 3.6387,21.1641 l 0,0 c 2.6426,2.6426 9.7689,3.2739 13.6309,1.207 1.2573,-0.673 2.9082,-3.0078 3.6679,-5.1875 1.7877,-5.1166 1.7853,-20.8202 0,-25.9414 -1.646,-4.7217 -6.2368,-7.3008 -10.7578,-7.125 z m -83.4023,66.9766 c 5.1103,0 6.4366,0.6025 10.6875,4.8535 l 4.8535,4.8516 0,14.8359 c -0.01,17.0235 -1.7781,21.7433 -9.3574,24.9102 l -0.01,0 c -5.8627,2.4496 -10.5039,2.2521 -15.2578,-0.6465 -7.3281,-4.4683 -8.5145,-7.7257 -8.4258,-23.1289 0.1151,-19.9585 4.014,-25.6758 17.5059,-25.6758 z m 167.9941,0.027 c 6.34,-0.038 12.6839,3.0443 15.2168,9.0469 1.0819,2.564 1.709,8.8911 1.709,17.2324 0,14.2207 -1.2295,17.8247 -7.4707,21.9141 -7.5566,4.9513 -18.6063,2.6987 -23.125,-4.7129 -2.1346,-3.5014 -2.5254,-6.3003 -2.5254,-18.3144 0,-10.891 0.471,-14.9867 2.041,-17.6446 2.9693,-5.0264 8.5602,-7.4879 14.1543,-7.5215 z m -87.3789,0.1797 c 1.1619,-0.01 2.3269,0.152 3.3672,0.5176 l 3.4375,1.209 0.3398,23.4082 c 0.324,22.3069 0.2288,23.4082 -2.041,23.4082 -3.3807,0 -3.8875,-3.1067 -3.9062,-23.9824 l -0.018,-18.3594 -4.0625,-0.3906 c -2.5714,-0.248 -4.0625,-1.0706 -4.0625,-2.2383 0,-2.0212 3.4597,-3.5503 6.9453,-3.5723 z m 169.2695,0.3008 c 1.2215,0.029 2.4272,0.2231 3.4727,0.6211 l 3.4375,1.3086 0,23.1563 c 0,22.2282 -0.1,23.1562 -2.4707,23.1562 -2.3478,0 -2.4868,-1.0344 -2.8125,-20.9375 l -0.3418,-20.9375 -4.375,-0.625 c -2.7209,-0.3888 -4.375,-1.3161 -4.375,-2.4531 0,-1.9592 3.8006,-3.3751 7.4648,-3.2891 z m -339.8906,0.3965 c 1.3141,0.031 2.6446,0.1426 3.6758,0.3262 l 3.75,0.6679 0.3398,23.4258 c 0.3247,22.3649 0.2327,23.4258 -2.0527,23.4258 -1.3166,0 -2.737,-0.8891 -3.1543,-1.9766 -0.4174,-1.0875 -0.7578,-10.6155 -0.7578,-21.1718 l 0,-19.1934 -4.0527,-0.3906 c -5.3212,-0.5144 -6.3178,-4.2547 -1.3223,-4.961 0.9626,-0.136 2.2601,-0.1836 3.5742,-0.1523 z m 88.4746,4.3984 c -3.8526,0.1556 -7.5966,2.4214 -9.2304,6.7188 -0.6569,1.7275 -1.1934,7.9129 -1.1934,13.7461 0,10.6161 1.8374,17.0085 5.2871,18.3965 3.1753,1.2776 10.3938,0.7152 12.6367,-0.9844 4.7781,-3.6206 6.3074,-24.0817 2.3867,-31.9297 -2.072,-4.1477 -6.0341,-6.1028 -9.8867,-5.9473 z m 170.418,0 c -3.8544,-0.155 -7.8359,1.8003 -9.9766,5.9434 -1.819,3.5246 -2.176,6.6145 -1.8203,15.8965 0.386,10.0741 0.8153,11.9191 3.416,14.6875 4.934,5.252 13.7685,4.2497 16.961,-1.9238 2.1045,-4.0698 2.5331,-22.8957 0.6347,-27.8887 -1.6328,-4.2948 -5.3604,-6.5599 -9.2148,-6.7149 z m -253.8867,65.9434 c 5.1103,0 6.4366,0.6025 10.6875,4.8535 l 4.8535,4.8516 0,14.8359 c -0.01,17.0235 -1.7781,21.7433 -9.3574,24.9102 l -0.01,0 c -7.6597,3.2003 -15.4297,1.2612 -20.4316,-5.0977 -2.4511,-3.1161 -2.7051,-4.9316 -2.7051,-19.2441 0,-17.3075 0.7952,-19.768 7.5137,-23.2422 1.9866,-1.0274 6.2365,-1.8672 9.4453,-1.8672 z m 170,0 c 5.1103,0 6.4366,0.6025 10.6875,4.8535 l 4.8535,4.8516 0,14.8359 c -0.01,17.0235 -1.778,21.7433 -9.3574,24.9102 l -0.01,0 c -5.8374,2.439 -10.5005,2.2536 -15.1797,-0.5996 -7.166,-4.3697 -7.957,-6.6527 -7.957,-22.9414 0,-16.5523 1.3336,-20.8461 7.459,-24.0137 2.0166,-1.0429 6.2912,-1.8965 9.5,-1.8965 z m 167.914,0.076 c 3.2294,-0.027 6.5182,0.5773 8.9219,1.8203 6.1355,3.1727 7.459,7.4534 7.459,24.123 0,16.3944 -1.139,19.4198 -8.7988,23.3809 -7.2427,3.7452 -16.942,1.0452 -21.1719,-5.8926 -2.1346,-3.5014 -2.5254,-6.3003 -2.5254,-18.3144 -0.01,-15.6118 1.2367,-19.422 7.5449,-23.1485 2.1699,-1.2817 5.3409,-1.9414 8.5703,-1.9687 z m -257.6386,0.1289 c 1.6867,-0.015 3.3899,0.2461 4.7402,0.8613 l 3.0293,1.3809 0,23.1504 c 0,21.8822 -0.1307,23.1523 -2.3672,23.1523 -1.3015,0 -2.7077,-0.8891 -3.125,-1.9766 -0.4174,-1.0875 -0.7578,-10.6155 -0.7578,-21.1718 l 0,-19.1934 -4.0527,-0.3906 c -2.6109,-0.2524 -4.1949,-1.1463 -4.4532,-2.5098 -0.3592,-1.8975 3.2755,-3.2693 6.9864,-3.3027 z m 169.0898,0 c 1.1619,-0.01 2.3269,0.152 3.3672,0.5176 l 3.4375,1.209 0.3398,23.4082 c 0.3295,22.6804 0.2635,23.4082 -2.1562,23.4082 -2.3834,0 -2.5147,-0.9551 -2.8418,-20.9375 L 1679.375,1360.625 1675,1360 c -2.7415,-0.3916 -4.375,-1.3147 -4.375,-2.4707 0,-2.0212 3.4597,-3.5503 6.9453,-3.5723 z m -81.2031,5.0098 c -1.6001,-0.01 -2.8538,0.4691 -4.4629,1.5234 -4.4711,2.9297 -5.6543,6.7514 -5.6543,18.2598 0,10.5261 1.3687,15.9306 4.6699,18.4375 2.6658,2.0243 10.3523,1.9402 13.0938,-0.1426 3.387,-2.5732 4.7343,-7.7228 4.7343,-18.0644 0,-12.4935 -2.4866,-17.8892 -8.9746,-19.4922 -1.3604,-0.3362 -2.4462,-0.5165 -3.4062,-0.5215 z m -169.711,0.092 c -3.8546,0.1549 -7.5801,2.4184 -9.2128,6.7129 -0.6569,1.7275 -1.1934,7.9129 -1.1934,13.7461 0,10.6161 1.8374,17.0085 5.2871,18.3965 3.9754,1.5995 9.7514,0.6831 12.9297,-2.0508 3.108,-2.6733 3.3963,-3.7608 3.9023,-14.6875 0.4494,-9.703 0.1445,-12.5784 -1.7226,-16.1758 -2.1501,-4.1424 -6.1356,-6.0963 -9.9903,-5.9414 z m 339.5704,0.023 c -3.2569,-0.01 -6.4808,1.3933 -8.4239,4.3614 -1.7112,2.6141 -2.1777,6.0626 -2.1777,16.0918 0,11.7888 0.2325,13.0114 3.0312,15.9902 4.9898,5.3106 13.8048,4.3438 17.0157,-1.8652 2.1045,-4.0698 2.5331,-22.8957 0.6347,-27.8887 -1.6492,-4.3379 -5.8927,-6.6789 -10.08,-6.6895 z m -85.1661,66.4688 c 1.1707,0.036 2.4224,0.2912 4.0684,0.7344 9.9088,2.6682 13.6074,9.6226 13.6074,25.5898 0,12.0077 -1.728,17.419 -6.7968,21.2852 -5.7073,4.3531 -11.338,4.9768 -17.795,1.9707 -7.7115,-3.5904 -9.1445,-7.3342 -9.1445,-23.8809 0,-16.7839 1.4117,-20.3567 9.4492,-23.9121 2.9366,-1.299 4.6603,-1.847 6.6113,-1.7871 z m -168.623,0.2441 c 5.6127,0.096 11.2345,2.8694 14.2676,8.0039 1.5632,2.6464 2.0449,6.7417 2.0449,17.3946 0,16.6436 -1.4283,20.3737 -9.1445,23.8769 -5.7758,2.6223 -7.148,2.7354 -12.9395,1.0586 -6.9671,-2.0171 -10.0238,-7.1469 -11.0293,-18.5059 -1.3007,-14.6942 0,-21.7909 4.9473,-27.039 3.1291,-3.3179 7.4881,-4.8637 11.8535,-4.7891 z m 249.4883,0.4551 c 8.356,0 8.0742,-0.8784 8.0742,25.1328 0,22.6866 -0.098,23.6172 -2.4707,23.6172 -2.3478,0 -2.4868,-1.0344 -2.8125,-20.9375 l -0.3418,-20.9375 -3.125,-0.4316 c -7.663,-1.06 -7.0985,-6.4434 0.6758,-6.4434 z m -167.9317,0.062 c 2.4934,0.073 4.8851,0.5667 5.7559,1.4375 1.0574,1.0574 1.5,8.25 1.5,24.375 0,21.5695 -0.1336,22.875 -2.3535,22.875 -3.3513,0 -3.8602,-3.1519 -3.8789,-24.0625 L 1595,1432.5 l -3.7891,0 c -4.1762,0 -6.4724,-3.2761 -3.58,-5.1074 1.2753,-0.8075 3.8698,-1.1535 6.3632,-1.0801 z m -171.7187,0 c 3.1285,-0.1393 6.6053,0.4597 7.6016,1.6602 0.9881,1.191 1.3257,8.6443 1.0898,24.0468 -0.2978,19.4347 -0.6033,22.3695 -2.3711,22.709 -3.1466,0.6044 -3.5957,-2.257 -3.5957,-22.959 l 0,-19.2734 -3.7891,0 c -4.1762,0 -6.4724,-3.2761 -3.58,-5.1074 1.0161,-0.6434 2.7674,-0.9926 4.6445,-1.0762 z m 90.2246,5.0586 c -2.4383,-2e-4 -4.8759,0.9637 -7.1172,2.8906 -3.3197,2.8543 -3.5311,3.6589 -3.9433,15.0684 -0.4765,13.188 0.8315,18.3114 5.2128,20.4297 4.5565,2.2029 9.2724,1.6465 12.9649,-1.5313 3.4534,-2.9721 3.5078,-3.2326 3.5078,-16.9844 0,-13.7522 -0.054,-14.0121 -3.5078,-16.9824 -2.241,-1.9272 -4.6789,-2.8904 -7.1172,-2.8906 z m 168.75,0 c -2.4382,-10e-5 -4.8758,0.963 -7.1172,2.8906 -3.4535,2.9703 -3.5078,3.2302 -3.5078,16.9824 0,13.7518 0.054,14.0123 3.5078,16.9844 6.2865,5.4101 14.9776,3.1523 17.2656,-4.4844 0.7564,-2.5243 1.1728,-9.5117 0.9258,-15.5273 -0.4177,-10.1717 -0.6954,-11.1476 -3.957,-13.9531 -2.2412,-1.9278 -4.679,-2.8925 -7.1172,-2.8926 z m -254.9258,65.5293 c 5.6778,-0.1513 11.5319,2.6007 15.2949,8.0605 1.6997,2.466 2.1309,5.9529 2.1309,17.25 0,16.8909 -1.4028,20.5906 -9.1445,24.1055 -2.8763,1.3059 -6.0743,2.3366 -7.1055,2.2891 -4.843,-0.2203 -10.0811,-2.7205 -13.0215,-6.2149 -3.1049,-3.69 -3.2285,-4.452 -3.2285,-19.8945 0,-15.4265 0.127,-16.2089 3.2168,-19.8809 3.1327,-3.723 7.4414,-5.5972 11.8574,-5.7148 z m 339.3535,0.125 c 4.5972,-0.074 9.9554,2.1346 13.3125,5.7285 3.4672,3.7109 3.5098,3.9518 3.5098,19.7051 0,17.8894 -1.2459,21.0969 -9.5449,24.5644 -5.3995,2.256 -7.5263,2.1461 -13.8106,-0.707 -7.7097,-3.5004 -9.1445,-7.2392 -9.1445,-23.8203 0,-18.322 1.8273,-21.9388 12.6504,-25.043 0.9458,-0.2712 1.9665,-0.4106 3.0273,-0.4277 z m -169.2773,0.4707 c 13.8345,0 17.3496,5.0644 17.3496,25 0,16.5811 -1.4348,20.3199 -9.1445,23.8203 -2.8763,1.3059 -6.0743,2.3366 -7.1055,2.2891 -4.843,-0.2203 -10.0811,-2.7205 -13.0215,-6.2149 -3.1111,-3.6968 -3.2285,-4.4333 -3.2285,-20.1562 l 0,-16.3184 4.4648,-4.209 c 3.8368,-3.6186 5.3368,-4.2109 10.6856,-4.2109 z m 80.5254,0 c 8.356,0 8.0742,-0.8784 8.0742,25.1328 0,22.6866 -0.098,23.6172 -2.4707,23.6172 -2.3475,0 -2.4868,-1.0335 -2.8125,-20.8867 l -0.3418,-20.8887 -4.125,-0.8418 c -2.2694,-0.4635 -4.4604,-1.1751 -4.8672,-1.582 -1.5987,-1.5988 2.6455,-4.5508 6.543,-4.5508 z m -167.9317,0.062 c 2.4934,0.073 4.8851,0.5667 5.7559,1.4375 1.0574,1.0574 1.5,8.25 1.5,24.375 0,21.6107 -0.1317,22.875 -2.3672,22.875 -1.3015,0 -2.7077,-0.8891 -3.125,-1.9766 -0.4174,-1.0875 -0.7578,-10.65 -0.7578,-21.25 l 0,-19.2734 -3.7891,0 c -4.1762,0 -6.4724,-3.2761 -3.58,-5.1074 1.2753,-0.8075 3.8698,-1.1535 6.3632,-1.0801 z m 256.7657,4.7656 c -4.9593,0.1341 -9.1462,4.957 -10.1817,13.2442 -1.4162,11.3356 0.1015,20.7802 3.877,24.1152 5.2022,4.5953 13.9081,3.0216 16.6562,-3.0098 0.7634,-1.6753 1.3887,-8.4051 1.3887,-14.957 0,-11.4996 -0.127,-12.0392 -3.6543,-15.5664 -2.6797,-2.6797 -5.4882,-3.8964 -8.0859,-3.8262 z M 1597.5,1502.5 c -2.0146,0 -5.1603,1.3343 -7.1172,3.0176 -3.4534,2.9707 -3.5078,3.2292 -3.5078,16.9824 0,13.7532 0.054,14.0117 3.5078,16.9824 1.9569,1.6833 5.1026,3.0176 7.1172,3.0176 2.0146,0 5.1603,-1.3343 7.1172,-3.0176 3.4535,-2.9707 3.5078,-3.2292 3.5078,-16.9824 0,-13.7532 -0.054,-14.0117 -3.5078,-16.9824 -1.9569,-1.6833 -5.1026,-3.0176 -7.1172,-3.0176 z m -170.0957,0.094 c -4.1842,-0.073 -8.3662,2.2938 -9.8379,6.5156 -1.7004,4.8667 -1.698,21.9223 0,26.7929 0.7238,2.0763 2.5519,4.3719 4.0625,5.1016 l 0,0 c 4.4926,2.1706 9.2715,1.6771 12.75,-1.3164 2.8303,-2.4356 3.3647,-4.0901 3.9883,-12.3437 0.9047,-11.9747 -0.2122,-18.0521 -4.0176,-21.8575 -1.9266,-1.9266 -4.4387,-2.8488 -6.9492,-2.8925 z m 254.2227,66.5136 c 4.1265,0.1299 8.2945,1.8141 11.6015,5.1211 4.7219,4.7219 6.3158,13.1283 5.1426,27.1231 -0.7873,9.3911 -3.1496,14.074 -8.4941,16.8379 -4.4799,2.3166 -13.2695,2.2433 -17.6739,-0.1465 -5.8345,-3.1658 -7.2031,-7.6169 -7.2031,-23.4219 0,-12.7398 0.3003,-14.6981 2.832,-18.4551 3.2514,-4.8247 8.4894,-7.2256 13.795,-7.0586 z m -169.0762,0.1543 c 3.2638,-0.01 6.5519,0.9118 9.4765,2.8281 5.476,3.5879 6.7227,7.8475 6.7227,22.9668 0,15.341 -1.2673,19.1878 -7.5488,22.8985 -7.3605,4.3479 -19.9925,1.3329 -23.8848,-5.7012 -1.0262,-1.8546 -1.6114,-8.0724 -1.6426,-17.4727 -0.043,-12.8378 0.2638,-15.0195 2.541,-18.125 3.5228,-4.8039 8.8962,-7.3836 14.336,-7.3945 z m 81.9453,0.6875 c 2.1069,0.044 4.1055,0.3919 5.2207,1.0996 1.215,0.7714 1.5109,6.4495 1.25,24.0274 -0.2976,20.0574 -0.6018,23.0672 -2.3672,23.4062 -2.9954,0.5753 -3.5632,-3.1957 -3.582,-23.7949 -0.017,-18.2762 -0.042,-18.4382 -2.8301,-18.457 -3.9926,-0.027 -6.4306,-1.8899 -5.5332,-4.2285 0.5192,-1.3531 4.3304,-2.1255 7.8418,-2.0528 z m -171.6406,0.014 c 2.923,-0.061 5.9831,0.5125 7.0215,1.7637 0.9881,1.191 1.3257,8.6443 1.0898,24.0468 -0.2978,19.4346 -0.6033,22.3695 -2.3711,22.709 -3.1466,0.6044 -3.5957,-2.257 -3.5957,-22.959 0,-19.1475 -0.018,-19.2741 -2.8125,-19.2929 -3.9926,-0.027 -6.4306,-1.8899 -5.5332,-4.2285 0.4923,-1.283 3.2782,-1.9783 6.2012,-2.0391 z m 337.6855,0.209 c 0.804,-0.02 1.7071,0 2.7051,0.064 l 6.1289,0.3887 0.3398,24.0625 c 0.3305,23.4268 0.2728,24.0625 -2.1875,24.0625 -2.437,0 -2.5273,-0.7575 -2.5273,-21.25 l 0,-21.25 -3.5977,0 c -4.0808,0 -6.7419,-2.4274 -5.2714,-4.8066 0.482,-0.7801 1.998,-1.2111 4.4101,-1.2715 z m -78.414,4.8301 c -2.6938,-0.058 -5.5325,0.8965 -7.9942,3.0136 -3.4535,2.9703 -3.5078,3.2302 -3.5078,16.9824 0,13.7518 0.054,14.0123 3.5078,16.9844 l 0,0 c 4.4819,3.8546 9.7508,3.8555 14.2344,0 3.2881,-2.8275 3.5343,-3.7286 3.9453,-14.4141 0.241,-6.2686 0.087,-12.8006 -0.3437,-14.5156 -1.2663,-5.0452 -5.3523,-7.9564 -9.8418,-8.0527 z m -170.7461,0.018 c -4.5349,0.2932 -8.5241,3.6832 -9.5821,9.3223 -0.4489,2.3931 -0.6089,8.9176 -0.3554,14.5 0.4265,9.3931 0.7316,10.3826 4.1015,13.2812 2.916,2.5082 4.5183,2.991 8.0371,2.42 8.2493,-1.3388 9.543,-4.0081 9.543,-19.6836 0,-13.5953 -0.058,-13.8731 -3.5078,-16.8418 -2.5985,-2.2362 -5.5154,-3.174 -8.2363,-2.9981 z m -83.6426,65.0879 c 2.1193,0.056 4.2337,0.7113 6.9082,1.9805 7.5179,3.5674 9.0996,7.718 9.0996,23.9687 0.01,15.6118 -1.2367,19.422 -7.5449,23.1485 -7.1597,4.2293 -20.0699,1.3288 -23.6211,-5.3067 -0.7352,-1.3736 -1.3301,-9.4332 -1.3301,-18.0234 0,-17.4353 1.2919,-20.7039 9.5449,-24.1523 2.6995,-1.1279 4.824,-1.671 6.9434,-1.6153 z m 338.2734,0 c 2.1194,-0.056 4.2439,0.4874 6.9434,1.6153 8.2829,3.4607 9.5449,6.6899 9.5449,24.4179 0,17.3075 -0.7952,19.768 -7.5137,23.2422 -4.5767,2.3667 -13.3383,2.322 -17.7832,-0.09 -5.8244,-3.1602 -7.1992,-7.6232 -7.1992,-23.293 0.01,-16.1881 1.5887,-20.348 9.0996,-23.9121 2.6745,-1.2692 4.7889,-1.9248 6.9082,-1.9805 z m -168.9238,0.2481 c 5.3193,-0.1996 10.5535,2.1984 13.8301,7.0605 2.547,3.7795 2.8271,5.6653 2.7871,18.707 -0.048,15.8347 -0.9372,18.7533 -6.9141,22.6934 -4.3602,2.8743 -13.4049,3.1545 -18.1738,0.5625 -6.9115,-3.7567 -7.9904,-7.9134 -7.5723,-29.1914 0.1972,-10.0375 0.3652,-10.5956 4.3574,-14.5879 3.3606,-3.3606 7.5484,-5.0889 11.6856,-5.2441 z m -87.5918,0.8437 c 2.1069,0.044 4.1055,0.3919 5.2207,1.0996 1.215,0.7713 1.5109,6.4495 1.25,24.0274 -0.2979,20.078 -0.6001,23.0661 -2.3711,23.4062 -3.1466,0.6044 -3.5957,-2.257 -3.5957,-22.959 0,-19.1475 -0.018,-19.2739 -2.8125,-19.2929 -3.9926,-0.027 -6.4306,-1.8899 -5.5332,-4.2285 0.5192,-1.3531 4.3304,-2.1255 7.8418,-2.0528 z m 165.0469,0.2051 c 0.8855,-0.017 1.957,0.017 3.2558,0.092 l 6.5762,0.3789 0.3398,24.0625 c 0.3305,23.4268 0.2728,24.0625 -2.1875,24.0625 -2.437,0 -2.5273,-0.7576 -2.5273,-21.25 l 0,-21.25 -3.4375,-0.02 c -4.6241,-0.026 -7.1044,-1.7629 -6.1328,-4.295 0.47,-1.2252 1.4568,-1.7312 4.1133,-1.7812 z m -247.959,4.8398 c -4.4601,0.1437 -8.5504,3.0708 -9.8028,8.0606 -0.4306,1.715 -0.5847,8.2469 -0.3437,14.5156 0.411,10.6855 0.6572,11.5866 3.9453,14.4141 4.5439,3.9069 10.0778,3.9202 13.9668,0.031 3.7651,-3.7651 4.8791,-9.6643 4.1055,-21.7187 -0.5379,-8.3811 -1.0063,-9.8456 -3.9766,-12.4004 -2.4095,-2.0726 -5.2185,-2.9886 -7.8945,-2.9024 z m 341.1894,0.01 c -3.0673,-0.071 -6.2016,0.9211 -8.3789,2.8086 -2.8811,2.4976 -3.3207,4.0021 -3.9375,13.4375 -0.8227,12.5861 1.0484,19.7376 5.793,22.1348 4.9475,2.4995 8.6586,1.8982 12.5957,-2.0391 3.5326,-3.5324 3.6543,-4.0544 3.6543,-15.6875 0,-12.4981 -1.6709,-18.3418 -5.6816,-19.8809 -1.2705,-0.4875 -2.6507,-0.741 -4.045,-0.7734 z m -170.7773,0.022 c -2.6613,-0.1073 -5.2056,0.6841 -6.9258,2.4043 -3.1986,3.1987 -4.1888,9.0408 -3.6269,21.4121 0.4216,9.2853 0.7581,10.4061 3.9531,13.1543 4.4676,3.8427 9.7438,3.8372 14.2207,-0.014 3.4535,-2.9707 3.5078,-3.2292 3.5078,-16.9824 0,-13.7533 -0.054,-14.0116 -3.5078,-16.9824 -2.1828,-1.8776 -4.9598,-2.8849 -7.6211,-2.9922 z m 84.2519,66.3398 c 2.9119,-2e-4 5.8226,0.7762 8.3711,2.3301 7.0838,4.3192 8.2785,7.4912 8.3985,22.334 0.1252,15.4202 -1.3599,20.2414 -7.375,23.959 l 0,0 c -4.2009,2.5963 -11.6938,3.1922 -16.3692,1.3008 -1.431,-0.5789 -4.1028,-2.8374 -5.9375,-5.0176 -3.1898,-3.791 -3.3359,-4.5897 -3.3359,-18.3047 0,-16.1931 1.324,-20.2744 7.873,-24.2676 2.5507,-1.553 5.4632,-2.3299 8.375,-2.3301 z m -168.9179,0.055 c 5.4317,-0.082 10.7869,2.4752 13.9746,7.7031 2.0572,3.3741 2.4453,6.3284 2.4453,18.836 l 0,14.8359 -4.8535,4.8516 0,0 c -4.312,4.312 -5.5311,4.8577 -10.9375,4.8457 -6.5605,-0.01 -11.6387,-2.5502 -15.1699,-7.5918 -3.1257,-4.4632 -3.0484,-30.5361 0.1054,-35.3496 3.4914,-5.3286 9,-8.0491 14.4317,-8.1309 z m -88.5625,1.7051 6.8574,0 0,23.7324 c 0,21.4205 -0.2085,23.7741 -2.1426,24.1465 -2.9917,0.5762 -3.4527,-2.3448 -3.8047,-24.1289 l -0.3027,-18.75 -4.1387,-0.3965 c -3.0916,-0.2967 -4.0349,-0.9289 -3.7324,-2.5 0.3208,-1.6655 1.8316,-2.1035 7.2637,-2.1035 z m 170,0 6.8574,0 0,23.6465 c 0,16.8078 -0.418,23.7857 -1.4473,24.1289 -2.8322,0.944 -3.5605,-3.0234 -4.1777,-22.7754 l -0.625,-20 -4.1387,-0.3965 c -3.0916,-0.2967 -4.0349,-0.9289 -3.7324,-2.5 0.3208,-1.6655 1.8316,-2.1035 7.2637,-2.1035 z m 168.7324,0 6.875,0 0,23.6465 c 0,17.8002 -0.3868,23.7742 -1.5625,24.166 -2.4523,0.8175 -2.7683,-1.5049 -3.1133,-22.8125 l -0.3242,-20 -4.375,-0.625 c -2.7778,-0.3969 -4.375,-1.3095 -4.375,-2.5 0,-1.4394 1.5972,-1.875 6.875,-1.875 z m -249.4902,4.375 c -9.3682,0 -11.7685,4.0095 -11.7422,19.625 0.02,12.046 1.4523,16.338 6.2578,18.7695 4.034,2.041 5.5897,1.9983 9.9902,-0.2773 4.7955,-2.4799 6.681,-9.5064 5.9532,-22.1914 -0.6595,-11.4934 -3.5699,-15.9258 -10.459,-15.9258 z m 167.8359,0.047 c -2.3882,0.033 -4.7139,0.5974 -6.2051,1.7285 -3.0832,2.3387 -4.654,8.5973 -4.5703,18.2168 0.088,10.19 2.1516,16.3476 6.1797,18.4453 3.9169,2.0398 9.8456,1.0218 13.1211,-2.252 2.0525,-2.0513 2.5822,-4.5332 2.9414,-13.7578 0.5029,-12.9159 -0.1429,-16.5081 -3.5937,-19.9589 -1.6291,-1.6291 -4.8026,-2.4642 -7.8731,-2.4219 z m 85.7051,65.0488 c 4.9582,0.1059 9.8669,2.5111 13.3379,6.9238 2.3276,2.9591 2.6064,4.9574 2.5664,18.461 -0.048,16.5189 -0.891,19.3654 -6.9141,23.3359 -3.8225,2.5198 -11.6128,3.1058 -16.2676,1.2227 -1.431,-0.5789 -4.1028,-2.8373 -5.9375,-5.0176 -3.1898,-3.791 -3.3359,-4.5897 -3.3359,-18.3047 0,-16.1931 1.324,-20.2744 7.873,-24.2676 2.7108,-1.6528 5.7028,-2.417 8.6778,-2.3535 z m -169.3965,0.012 c 5.4963,-0.1544 10.9131,2.4564 14.1504,7.7656 2.0572,3.3741 2.4453,6.3284 2.4453,18.836 l 0,14.8359 -4.8535,4.8516 0.01,0 c -4.312,4.312 -5.5311,4.8587 -10.9375,4.8457 -6.6912,-0.01 -12.3519,-2.9211 -15.0195,-7.7285 -1.0481,-1.8886 -1.6177,-8.1289 -1.6465,-18.0332 -0.04,-13.5036 0.2388,-15.5019 2.5664,-18.461 3.5285,-4.4858 8.4394,-6.7759 13.2891,-6.9121 z m -169.9941,0.078 c 2.3167,0.039 4.7409,0.5723 7.2324,1.6133 7.5632,3.1602 9.3574,7.898 9.3574,24.7813 l 0,14.707 -4.1699,4.5488 0.01,0 c -3.6422,3.9745 -5.0243,4.607 -10.9375,5.0039 -7.5751,0.5082 -12.0529,-1.3506 -15.3398,-6.3671 -1.6265,-2.4823 -2.0547,-6.3612 -2.0547,-18.6348 0,-13.8261 0.283,-15.8583 2.6113,-18.8184 3.622,-4.6046 8.1981,-6.9195 13.295,-6.834 z m 81.6074,1.6895 6.8574,0 0,23.7324 c 0,21.6089 -0.1958,23.7708 -2.1875,24.1543 -1.2031,0.2316 -2.2801,0.24 -2.3926,0.018 -0.113,-0.2222 -0.5348,-9.9668 -0.9375,-21.6543 l -0.7324,-21.25 -4.1387,-0.3965 c -3.0916,-0.2967 -4.0349,-0.9289 -3.7324,-2.5 0.3208,-1.6655 1.8316,-2.1035 7.2637,-2.1035 z m 168.7324,0 6.875,0 0,23.6465 c 0,17.8002 -0.3868,23.7742 -1.5625,24.166 -2.4523,0.8175 -2.7683,-1.5049 -3.1133,-22.8125 l -0.3242,-20 L 1675,1790 c -2.7778,-0.3969 -4.375,-1.3095 -4.375,-2.5 0,-1.4394 1.5972,-1.875 6.875,-1.875 z m -250.8887,4.3516 c -2.453,0.085 -4.8939,0.88 -6.7851,2.4101 -2.7074,2.1902 -2.9796,3.4545 -3.3028,15.3125 -0.3855,14.1473 0.7415,18.0335 6.002,20.6953 4.034,2.041 5.5897,1.9983 9.9902,-0.2773 4.7955,-2.4799 6.681,-9.5064 5.9532,-22.1914 -0.4584,-7.9879 -1.0728,-10.2497 -3.4805,-12.8125 -2.0494,-2.1816 -5.2231,-3.2464 -8.377,-3.1367 z M 1598.043,1790 c -9.3002,0 -11.8054,4.36 -11.7754,20.5 0.02,11.1227 1.5418,15.4821 6.2578,17.9453 3.8259,1.9985 9.811,1.025 12.9414,-2.1055 1.6898,-1.6898 2.5263,-4.8109 2.9766,-11.1035 1.2682,-17.7248 -1.8279,-25.2363 -10.4004,-25.2363 z m 167.6972,0 c -7.0605,0 -9.8491,4.423 -10.4472,16.5703 -0.6027,12.2369 1.3692,19.4728 5.957,21.8652 4.2548,2.2186 10.0432,0.9782 13.4375,-2.8789 2.4947,-2.835 2.8125,-4.5358 2.8125,-15.0625 0,-16.5628 -2.2556,-20.4941 -11.7598,-20.4941 z m -84.7949,66.3457 c 2.9742,-0.065 5.9658,0.6984 8.6738,2.3496 7.2004,4.3904 8.3524,7.5317 8.4336,23.0137 0.081,15.3945 -1.4225,19.8007 -8.1015,23.7461 -1.9035,1.1244 -6.0237,2.0449 -9.1543,2.0449 -4.8932,0 -6.4007,-0.6747 -10.7442,-4.8066 l -5.0527,-4.8067 0,-15.6504 c 0,-13.9777 0.2798,-16.0028 2.6113,-18.9668 3.4696,-4.4109 8.3771,-6.8162 13.334,-6.9238 z m -168.6426,0.055 c 2.7083,-0.021 5.4206,0.5452 7.8184,1.7851 7.0532,3.6474 8.6289,8.1625 8.6289,24.8204 l 0,14.8808 -5.0527,4.8067 0,0 c -4.4052,4.1905 -5.8068,4.8041 -10.9375,4.7851 -7.2028,-0.026 -13.0723,-3.4781 -15.4356,-9.0781 -2.4327,-5.7646 -2.0266,-29.1826 0.5938,-34.25 2.4897,-4.8144 8.4228,-7.7035 14.3808,-7.75 z m -88.5527,1.7246 6.875,0 0,23.6465 c 0,23.4027 -0.5611,26.5424 -4.1094,22.9941 -1.063,-1.063 -1.5156,-7.5753 -1.5156,-21.8105 l 0,-20.2969 -4.0625,-0.3906 c -2.6038,-0.2511 -4.0625,-1.0659 -4.0625,-2.2676 0,-1.4394 1.5972,-1.875 6.875,-1.875 z m 170,0 6.875,0 0,23.6465 c 0,17.0833 -0.4108,23.7829 -1.4785,24.1387 -3.123,1.041 -4.1465,-4.8545 -4.1465,-23.8731 l 0,-19.3789 -4.0625,-0.3906 c -2.6038,-0.2511 -4.0625,-1.0659 -4.0625,-2.2676 0,-1.4394 1.5972,-1.875 6.875,-1.875 z m 168.75,0 6.875,0 0,23.6465 c 0,17.8002 -0.3868,23.7742 -1.5625,24.166 -2.4523,0.8175 -2.7683,-1.5049 -3.1133,-22.8125 l -0.3242,-20 -4.375,-0.625 c -2.7778,-0.3969 -4.375,-1.3095 -4.375,-2.5 0,-1.4394 1.5972,-1.875 6.875,-1.875 z m -249.9375,4.418 c -2.9464,0.073 -5.936,0.888 -7.7363,2.3457 -2.7913,2.2602 -2.9512,3.1667 -2.9512,16.7441 0,15.4403 1.2337,18.8117 7.3184,20.002 1.4751,0.2885 2.8412,0.6013 3.0351,0.6953 0.194,0.094 2.2629,-0.6293 4.5996,-1.6055 5.0379,-2.105 6.9082,-7.206 6.9082,-18.8496 0,-9.4776 -1.9185,-16.4822 -4.959,-18.1094 -1.6578,-0.8872 -3.9232,-1.2798 -6.2148,-1.2226 z m 168.625,0 c -2.2916,-0.057 -4.557,0.3354 -6.2148,1.2226 -3.0405,1.6272 -4.959,8.6318 -4.959,18.1094 0,11.3777 1.8932,16.7371 6.6347,18.7871 6.7297,2.9097 14.0184,-0.6544 15.2989,-7.4805 0.4471,-2.3854 0.6146,-9.1885 0.3711,-15.1191 -0.3918,-9.538 -0.7843,-11.0603 -3.3946,-13.1738 -1.8002,-1.4577 -4.7899,-2.2723 -7.7363,-2.3457 z m 84.9961,63.8066 c 5.061,-0.036 10.1198,2.3619 13.7051,6.9199 2.3276,2.9591 2.6064,4.9574 2.5664,18.461 -0.048,16.5189 -0.891,19.3654 -6.9141,23.3359 -2.3529,1.551 -5.8446,2.4258 -9.75,2.4258 -5.4064,0.01 -6.6255,-0.5337 -10.9375,-4.8457 l -4.8535,-4.8516 0.018,-14.8359 c 0.021,-16.5756 0.9305,-19.5178 7.373,-23.8594 2.7192,-1.8324 5.7564,-2.7285 8.793,-2.75 z m -169.0293,0.01 c 5.4963,-0.1544 10.9131,2.4564 14.1504,7.7656 2.0572,3.3741 2.4453,6.3284 2.4453,18.836 l 0,14.8359 -4.8535,4.8516 0.01,0 c -4.312,4.312 -5.5311,4.8587 -10.9375,4.8457 -6.6912,-0.01 -12.3519,-2.9211 -15.0195,-7.7285 -1.0481,-1.8886 -1.6177,-8.1289 -1.6465,-18.0332 -0.04,-13.5036 0.2388,-15.5019 2.5664,-18.461 3.5285,-4.4858 8.4394,-6.7759 13.2891,-6.9121 z m -169.9941,0.078 c 2.3167,0.039 4.7409,0.5723 7.2324,1.6133 7.5632,3.1602 9.3574,7.898 9.3574,24.7813 l 0,14.707 -4.1699,4.5488 0.01,0 c -3.6422,3.9745 -5.0243,4.607 -10.9375,5.0039 -7.5751,0.5082 -12.0529,-1.3506 -15.3398,-6.3671 -1.6265,-2.4823 -2.0547,-6.3612 -2.0547,-18.6348 0,-13.8261 0.283,-15.8583 2.6113,-18.8184 3.622,-4.6046 8.1981,-6.9195 13.295,-6.834 z m 81.6074,1.6895 6.8574,0 0,23.6465 c 0,23.4027 -0.5611,26.5424 -4.1094,22.9941 -1.0635,-1.0635 -1.5156,-7.5934 -1.5156,-21.8906 l 0,-20.375 -4.4668,0 c -3.5811,0 -4.3827,-0.4336 -4.0449,-2.1875 0.3401,-1.7664 1.7418,-2.1875 7.2793,-2.1875 z m 168.7324,0 6.875,0 0,23.6465 c 0,17.8002 -0.3868,23.7742 -1.5625,24.166 -2.4523,0.8175 -2.7683,-1.5049 -3.1133,-22.8125 l -0.3242,-20 -4.375,-0.625 c -2.7778,-0.3969 -4.375,-1.3095 -4.375,-2.5 0,-1.4394 1.5972,-1.875 6.875,-1.875 z m 88.6523,4.3672 c -2.7852,0.098 -5.4764,1.0837 -7.207,2.9258 -2.1614,2.3007 -2.8996,5.0102 -3.4902,12.8125 -0.946,12.4965 0.8492,19.7714 5.5254,22.3789 4.1622,2.3211 9.982,1.4848 13.3906,-1.9239 2.217,-2.2169 2.5039,-4.1627 2.5039,-16.955 0,-13.6788 -0.1578,-14.5798 -2.9512,-16.8418 -2.1077,-1.7068 -4.9862,-2.4947 -7.7715,-2.3965 z m -338.1425,0.01 c -9.3682,0 -11.7685,4.0095 -11.7422,19.625 0.02,12.046 1.4523,16.338 6.2578,18.7695 4.0242,2.0361 5.5927,1.9968 9.9336,-0.248 4.9942,-2.5826 6.7085,-8.6646 6.039,-21.4199 -0.6463,-12.3146 -3.4121,-16.7266 -10.4882,-16.7266 z m 170.0332,0 c -9.3002,0 -11.8054,4.36 -11.7754,20.5 0.02,11.1227 1.5418,15.4821 6.2578,17.9453 3.8259,1.9985 9.811,1.025 12.9414,-2.1055 1.6898,-1.6898 2.5263,-4.8109 2.9766,-11.1035 1.2682,-17.7248 -1.8279,-25.2363 -10.4004,-25.2363 z"
       transform="translate(-1705.7143,-616.20925)"
       id="path4149"
       inkscape:connector-curvature="0" />
    <rect
       style="opacity:1;fill:#334a71;fill-opacity:1;stroke:none;stroke-width:3;stroke-linecap:round;stroke-linejoin:round;stroke-miterlimit:4;stroke-dasharray:none;stroke-dashoffset:0;stroke-opacity:1"
       id="rect4137"
       width="1050"
       height="2000"
       x="-2753.7144"
       y="-616.20923" />
  </g>
</svg>
